G75*
%MOIN*%
%OFA0B0*%
%FSLAX25Y25*%
%IPPOS*%
%LPD*%
%AMOC8*
5,1,8,0,0,1.08239X$1,22.5*
%
%ADD10R,0.10236X0.10236*%
%ADD11R,0.02362X0.05906*%
%ADD12R,0.12000X0.03937*%
%ADD13C,0.07400*%
%ADD14C,0.01600*%
%ADD15R,0.03962X0.03962*%
D10*
X0078071Y0027717D03*
X0135748Y0027717D03*
D11*
X0124134Y0038150D03*
X0119213Y0038150D03*
X0114291Y0038150D03*
X0109370Y0038150D03*
X0104449Y0038150D03*
X0099528Y0038150D03*
X0094606Y0038150D03*
X0089685Y0038150D03*
D12*
X0091909Y0153543D03*
X0091909Y0166142D03*
X0116201Y0166142D03*
X0116201Y0153543D03*
X0224744Y0154016D03*
X0224744Y0166614D03*
X0249035Y0166614D03*
X0249035Y0154016D03*
D13*
X0015748Y0022008D03*
X0015748Y0032008D03*
X0015748Y0042008D03*
X0015748Y0052008D03*
X0015748Y0062008D03*
X0015748Y0072008D03*
X0015748Y0082008D03*
X0015748Y0092008D03*
X0015709Y0112047D03*
X0015709Y0122047D03*
X0015709Y0132047D03*
X0015709Y0142047D03*
X0015709Y0152047D03*
X0015709Y0162047D03*
X0205748Y0162008D03*
X0205748Y0152008D03*
X0205748Y0142008D03*
X0205748Y0132008D03*
X0205748Y0122008D03*
X0205748Y0112008D03*
X0205748Y0102008D03*
X0205748Y0092008D03*
D14*
X0239803Y0067480D02*
X0140315Y0067480D01*
X0138701Y0069094D01*
X0138740Y0069134D01*
X0138740Y0069252D01*
X0138780Y0069252D01*
X0140551Y0067480D01*
X0140984Y0067480D01*
X0136929Y0067480D01*
X0138740Y0069291D01*
X0138740Y0108465D01*
X0147441Y0116417D02*
X0152402Y0121378D01*
X0152402Y0149370D01*
X0155039Y0152008D01*
X0205748Y0152008D01*
X0205748Y0162008D02*
X0150276Y0162008D01*
X0148031Y0159764D01*
X0148031Y0124291D01*
X0144843Y0121102D01*
X0109370Y0121102D01*
X0104488Y0116220D01*
X0104449Y0038150D01*
X0109370Y0038150D02*
X0109370Y0112835D01*
X0112953Y0116417D01*
X0147441Y0116417D01*
X0138701Y0128031D02*
X0138740Y0128071D01*
X0138740Y0150000D01*
X0135197Y0153543D01*
X0116201Y0153543D01*
X0094536Y0153150D02*
X0091909Y0153543D01*
X0069882Y0153543D01*
X0067677Y0155748D01*
X0067480Y0155945D01*
X0067480Y0157835D01*
X0067441Y0157795D01*
X0067441Y0157598D01*
X0046142Y0166142D02*
X0091909Y0166142D01*
X0091969Y0166142D01*
X0092087Y0166024D01*
X0092087Y0173701D01*
X0097480Y0179094D01*
X0220000Y0179094D01*
X0224764Y0174331D01*
X0224764Y0166634D01*
X0224744Y0166614D01*
X0224744Y0154016D02*
X0224646Y0153917D01*
X0224646Y0128071D01*
X0218583Y0122008D01*
X0205748Y0122008D01*
X0249035Y0154016D02*
X0249035Y0076713D01*
X0239803Y0067480D01*
X0136929Y0067480D02*
X0127480Y0067480D01*
X0124162Y0064162D01*
X0124162Y0044332D01*
X0124173Y0046693D02*
X0124134Y0038150D01*
X0124173Y0028346D01*
X0124173Y0017598D01*
X0122340Y0015765D01*
X0036597Y0015765D01*
X0031772Y0020591D01*
X0031772Y0057677D01*
X0027441Y0062008D01*
X0015748Y0062008D01*
X0015748Y0082008D02*
X0033228Y0082008D01*
X0034921Y0083701D01*
X0034921Y0086654D01*
X0034921Y0154921D01*
X0046142Y0166142D01*
X0067441Y0175709D02*
X0067441Y0180039D01*
X0072598Y0185197D01*
X0243425Y0185197D01*
X0249016Y0179606D01*
X0249016Y0166634D01*
X0249035Y0166614D01*
X0087143Y0082424D02*
X0087143Y0072463D01*
X0087143Y0029184D01*
X0089122Y0027205D01*
X0118071Y0027205D01*
X0119252Y0028386D01*
X0119213Y0038150D01*
X0109528Y0038307D02*
X0109370Y0038150D01*
X0087143Y0082424D02*
X0084252Y0085315D01*
X0036535Y0085315D01*
X0035197Y0086654D01*
X0034921Y0086654D01*
X0036220Y0085315D02*
X0036535Y0085315D01*
X0034921Y0083701D01*
D15*
X0138740Y0108465D03*
X0138701Y0128031D03*
X0067441Y0157598D03*
X0067441Y0175709D03*
M02*
