G75*
%MOIN*%
%OFA0B0*%
%FSLAX25Y25*%
%IPPOS*%
%LPD*%
%AMOC8*
5,1,8,0,0,1.08239X$1,22.5*
%
%ADD10C,0.00500*%
%ADD11C,0.00800*%
%ADD12C,0.01600*%
%ADD13C,0.03200*%
%ADD14C,0.00000*%
%ADD15C,0.00320*%
%ADD16C,0.02300*%
%ADD17C,0.01600*%
%ADD18C,0.01000*%
D10*
X0077283Y0033622D02*
X0077283Y0043071D01*
X0079252Y0043071D01*
X0079252Y0039921D01*
X0087717Y0039921D01*
X0083976Y0023386D02*
X0129843Y0023386D01*
X0136535Y0033622D02*
X0136535Y0039921D01*
X0136535Y0043071D01*
X0134567Y0043071D01*
X0134567Y0039921D01*
X0126102Y0039921D01*
X0023398Y0093155D02*
X0023398Y0093472D01*
X0023081Y0093789D01*
X0021496Y0093789D01*
X0021496Y0093472D02*
X0021496Y0094106D01*
X0021813Y0095048D02*
X0021496Y0095365D01*
X0021496Y0095999D01*
X0021813Y0096316D01*
X0022130Y0096316D01*
X0023398Y0095048D01*
X0023398Y0096316D01*
X0023398Y0093155D02*
X0023081Y0092838D01*
X0023042Y0162877D02*
X0023359Y0163194D01*
X0023359Y0163511D01*
X0023042Y0163828D01*
X0021457Y0163828D01*
X0021457Y0163511D02*
X0021457Y0164145D01*
X0021774Y0165087D02*
X0021457Y0165404D01*
X0021457Y0166038D01*
X0021774Y0166355D01*
X0022091Y0166355D01*
X0022408Y0166038D01*
X0022725Y0166355D01*
X0023042Y0166355D01*
X0023359Y0166038D01*
X0023359Y0165404D01*
X0023042Y0165087D01*
X0022408Y0165721D02*
X0022408Y0166038D01*
X0100990Y0171409D02*
X0101307Y0171093D01*
X0101941Y0171093D01*
X0102258Y0171409D01*
X0102258Y0172994D01*
X0103200Y0172677D02*
X0103517Y0172994D01*
X0104151Y0172994D01*
X0104468Y0172677D01*
X0104151Y0172043D02*
X0103517Y0172043D01*
X0103200Y0172360D01*
X0103200Y0172677D01*
X0103834Y0173311D02*
X0103834Y0170776D01*
X0103517Y0171093D02*
X0104151Y0171093D01*
X0104468Y0171409D01*
X0104468Y0171726D01*
X0104151Y0172043D01*
X0103200Y0171409D02*
X0103517Y0171093D01*
X0105410Y0172043D02*
X0106678Y0172043D01*
X0106361Y0171093D02*
X0106361Y0172994D01*
X0105410Y0172043D01*
X0100990Y0171409D02*
X0100990Y0172994D01*
X0211496Y0165682D02*
X0212130Y0165048D01*
X0211496Y0165682D02*
X0213398Y0165682D01*
X0213398Y0165048D02*
X0213398Y0166316D01*
X0213081Y0163789D02*
X0211496Y0163789D01*
X0211496Y0163472D02*
X0211496Y0164106D01*
X0213081Y0163789D02*
X0213398Y0163472D01*
X0213398Y0163155D01*
X0213081Y0162838D01*
X0233825Y0171882D02*
X0234142Y0171565D01*
X0234776Y0171565D01*
X0235093Y0171882D01*
X0235093Y0173467D01*
X0236035Y0173150D02*
X0236352Y0173467D01*
X0236986Y0173467D01*
X0237303Y0173150D01*
X0236986Y0172516D02*
X0236352Y0172516D01*
X0236035Y0172833D01*
X0236035Y0173150D01*
X0236669Y0173784D02*
X0236669Y0171248D01*
X0236986Y0171565D02*
X0237303Y0171882D01*
X0237303Y0172199D01*
X0236986Y0172516D01*
X0236986Y0171565D02*
X0236352Y0171565D01*
X0236035Y0171882D01*
X0238245Y0171882D02*
X0238562Y0171565D01*
X0239196Y0171565D01*
X0239512Y0171882D01*
X0239512Y0172199D01*
X0239196Y0172516D01*
X0238879Y0172516D01*
X0239196Y0172516D02*
X0239512Y0172833D01*
X0239512Y0173150D01*
X0239196Y0173467D01*
X0238562Y0173467D01*
X0238245Y0173150D01*
X0233825Y0173467D02*
X0233825Y0171882D01*
D11*
X0013248Y0017008D02*
X0010748Y0019508D01*
X0010748Y0024508D01*
X0013248Y0027008D01*
X0010748Y0029508D01*
X0010748Y0034508D01*
X0013248Y0037008D01*
X0010748Y0039508D01*
X0010748Y0044508D01*
X0013248Y0047008D01*
X0010748Y0049508D01*
X0010748Y0054508D01*
X0013248Y0057008D01*
X0010748Y0059508D01*
X0010748Y0064508D01*
X0013248Y0067008D01*
X0010748Y0069508D01*
X0010748Y0074508D01*
X0013248Y0077008D01*
X0010748Y0079508D01*
X0010748Y0084508D01*
X0013248Y0087008D01*
X0010748Y0089508D01*
X0010748Y0094508D01*
X0013248Y0097008D01*
X0018248Y0097008D01*
X0020748Y0094508D01*
X0020748Y0089508D01*
X0018248Y0087008D01*
X0020748Y0084508D01*
X0020748Y0079508D01*
X0018248Y0077008D01*
X0020748Y0074508D01*
X0020748Y0069508D01*
X0018248Y0067008D01*
X0020748Y0064508D01*
X0020748Y0059508D01*
X0018248Y0057008D01*
X0020748Y0054508D01*
X0020748Y0049508D01*
X0018248Y0047008D01*
X0020748Y0044508D01*
X0020748Y0039508D01*
X0018248Y0037008D01*
X0020748Y0034508D01*
X0020748Y0029508D01*
X0018248Y0027008D01*
X0020748Y0024508D01*
X0020748Y0019508D01*
X0018248Y0017008D01*
X0013248Y0017008D01*
X0013209Y0107047D02*
X0018209Y0107047D01*
X0020709Y0109547D01*
X0020709Y0114547D01*
X0018209Y0117047D01*
X0020709Y0119547D01*
X0020709Y0124547D01*
X0018209Y0127047D01*
X0020709Y0129547D01*
X0020709Y0134547D01*
X0018209Y0137047D01*
X0020709Y0139547D01*
X0020709Y0144547D01*
X0018209Y0147047D01*
X0020709Y0149547D01*
X0020709Y0154547D01*
X0018209Y0157047D01*
X0020709Y0159547D01*
X0020709Y0164547D01*
X0018209Y0167047D01*
X0013209Y0167047D01*
X0010709Y0164547D01*
X0010709Y0159547D01*
X0013209Y0157047D01*
X0010709Y0154547D01*
X0010709Y0149547D01*
X0013209Y0147047D01*
X0010709Y0144547D01*
X0010709Y0139547D01*
X0013209Y0137047D01*
X0010709Y0134547D01*
X0010709Y0129547D01*
X0013209Y0127047D01*
X0010709Y0124547D01*
X0010709Y0119547D01*
X0013209Y0117047D01*
X0010709Y0114547D01*
X0010709Y0109547D01*
X0013209Y0107047D01*
X0094165Y0149563D02*
X0094165Y0150473D01*
X0094165Y0149563D02*
X0113655Y0149563D01*
X0113655Y0149543D01*
X0113855Y0149543D01*
X0113855Y0150543D01*
X0114055Y0156643D02*
X0114055Y0163343D01*
X0113935Y0168973D02*
X0113935Y0170043D01*
X0113735Y0170043D01*
X0113735Y0170053D01*
X0094175Y0170053D01*
X0094175Y0169163D01*
X0094055Y0163243D02*
X0094055Y0159843D01*
X0104055Y0169843D01*
X0094055Y0159843D02*
X0094055Y0156443D01*
X0200748Y0154508D02*
X0200748Y0149508D01*
X0203248Y0147008D01*
X0200748Y0144508D01*
X0200748Y0139508D01*
X0203248Y0137008D01*
X0200748Y0134508D01*
X0200748Y0129508D01*
X0203248Y0127008D01*
X0200748Y0124508D01*
X0200748Y0119508D01*
X0203248Y0117008D01*
X0200748Y0114508D01*
X0200748Y0109508D01*
X0203248Y0107008D01*
X0200748Y0104508D01*
X0200748Y0099508D01*
X0203248Y0097008D01*
X0200748Y0094508D01*
X0200748Y0089508D01*
X0203248Y0087008D01*
X0208248Y0087008D01*
X0210748Y0089508D01*
X0210748Y0094508D01*
X0208248Y0097008D01*
X0210748Y0099508D01*
X0210748Y0104508D01*
X0208248Y0107008D01*
X0210748Y0109508D01*
X0210748Y0114508D01*
X0208248Y0117008D01*
X0210748Y0119508D01*
X0210748Y0124508D01*
X0208248Y0127008D01*
X0210748Y0129508D01*
X0210748Y0134508D01*
X0208248Y0137008D01*
X0210748Y0139508D01*
X0210748Y0144508D01*
X0208248Y0147008D01*
X0210748Y0149508D01*
X0210748Y0154508D01*
X0208248Y0157008D01*
X0210748Y0159508D01*
X0210748Y0164508D01*
X0208248Y0167008D01*
X0203248Y0167008D01*
X0200748Y0164508D01*
X0200748Y0159508D01*
X0203248Y0157008D01*
X0200748Y0154508D01*
X0226890Y0156915D02*
X0226890Y0160315D01*
X0236890Y0170315D01*
X0246570Y0170515D02*
X0246570Y0170525D01*
X0227010Y0170525D01*
X0227010Y0169635D01*
X0226890Y0163715D02*
X0226890Y0160315D01*
X0227000Y0150945D02*
X0227000Y0150035D01*
X0246490Y0150035D01*
X0246490Y0150015D01*
X0246690Y0150015D01*
X0246690Y0151015D01*
X0246890Y0157115D02*
X0246890Y0163815D01*
X0246770Y0169445D02*
X0246770Y0170515D01*
X0246570Y0170515D01*
D12*
X0225640Y0171565D03*
X0092805Y0171093D03*
D13*
X0095315Y0159803D02*
X0095318Y0160016D01*
X0095325Y0160228D01*
X0095338Y0160440D01*
X0095357Y0160652D01*
X0095380Y0160863D01*
X0095409Y0161074D01*
X0095443Y0161284D01*
X0095481Y0161493D01*
X0095525Y0161701D01*
X0095575Y0161907D01*
X0095629Y0162113D01*
X0095688Y0162317D01*
X0095752Y0162520D01*
X0095821Y0162721D01*
X0095895Y0162920D01*
X0095974Y0163117D01*
X0096058Y0163313D01*
X0096147Y0163506D01*
X0096240Y0163697D01*
X0096338Y0163886D01*
X0096440Y0164072D01*
X0096547Y0164256D01*
X0096659Y0164437D01*
X0096775Y0164615D01*
X0096895Y0164790D01*
X0097019Y0164962D01*
X0097148Y0165132D01*
X0097281Y0165297D01*
X0097418Y0165460D01*
X0097559Y0165619D01*
X0097703Y0165775D01*
X0097852Y0165927D01*
X0098004Y0166076D01*
X0098160Y0166220D01*
X0098319Y0166361D01*
X0098482Y0166498D01*
X0098647Y0166631D01*
X0098817Y0166760D01*
X0098989Y0166884D01*
X0099164Y0167004D01*
X0099342Y0167120D01*
X0099523Y0167232D01*
X0099707Y0167339D01*
X0099893Y0167441D01*
X0100082Y0167539D01*
X0100273Y0167632D01*
X0100466Y0167721D01*
X0100662Y0167805D01*
X0100859Y0167884D01*
X0101058Y0167958D01*
X0101259Y0168027D01*
X0101462Y0168091D01*
X0101666Y0168150D01*
X0101872Y0168204D01*
X0102078Y0168254D01*
X0102286Y0168298D01*
X0102495Y0168336D01*
X0102705Y0168370D01*
X0102916Y0168399D01*
X0103127Y0168422D01*
X0103339Y0168441D01*
X0103551Y0168454D01*
X0103763Y0168461D01*
X0103976Y0168464D01*
X0104189Y0168461D01*
X0104401Y0168454D01*
X0104613Y0168441D01*
X0104825Y0168422D01*
X0105036Y0168399D01*
X0105247Y0168370D01*
X0105457Y0168336D01*
X0105666Y0168298D01*
X0105874Y0168254D01*
X0106080Y0168204D01*
X0106286Y0168150D01*
X0106490Y0168091D01*
X0106693Y0168027D01*
X0106894Y0167958D01*
X0107093Y0167884D01*
X0107290Y0167805D01*
X0107486Y0167721D01*
X0107679Y0167632D01*
X0107870Y0167539D01*
X0108059Y0167441D01*
X0108245Y0167339D01*
X0108429Y0167232D01*
X0108610Y0167120D01*
X0108788Y0167004D01*
X0108963Y0166884D01*
X0109135Y0166760D01*
X0109305Y0166631D01*
X0109470Y0166498D01*
X0109633Y0166361D01*
X0109792Y0166220D01*
X0109948Y0166076D01*
X0110100Y0165927D01*
X0110249Y0165775D01*
X0110393Y0165619D01*
X0110534Y0165460D01*
X0110671Y0165297D01*
X0110804Y0165132D01*
X0110933Y0164962D01*
X0111057Y0164790D01*
X0111177Y0164615D01*
X0111293Y0164437D01*
X0111405Y0164256D01*
X0111512Y0164072D01*
X0111614Y0163886D01*
X0111712Y0163697D01*
X0111805Y0163506D01*
X0111894Y0163313D01*
X0111978Y0163117D01*
X0112057Y0162920D01*
X0112131Y0162721D01*
X0112200Y0162520D01*
X0112264Y0162317D01*
X0112323Y0162113D01*
X0112377Y0161907D01*
X0112427Y0161701D01*
X0112471Y0161493D01*
X0112509Y0161284D01*
X0112543Y0161074D01*
X0112572Y0160863D01*
X0112595Y0160652D01*
X0112614Y0160440D01*
X0112627Y0160228D01*
X0112634Y0160016D01*
X0112637Y0159803D01*
X0112634Y0159590D01*
X0112627Y0159378D01*
X0112614Y0159166D01*
X0112595Y0158954D01*
X0112572Y0158743D01*
X0112543Y0158532D01*
X0112509Y0158322D01*
X0112471Y0158113D01*
X0112427Y0157905D01*
X0112377Y0157699D01*
X0112323Y0157493D01*
X0112264Y0157289D01*
X0112200Y0157086D01*
X0112131Y0156885D01*
X0112057Y0156686D01*
X0111978Y0156489D01*
X0111894Y0156293D01*
X0111805Y0156100D01*
X0111712Y0155909D01*
X0111614Y0155720D01*
X0111512Y0155534D01*
X0111405Y0155350D01*
X0111293Y0155169D01*
X0111177Y0154991D01*
X0111057Y0154816D01*
X0110933Y0154644D01*
X0110804Y0154474D01*
X0110671Y0154309D01*
X0110534Y0154146D01*
X0110393Y0153987D01*
X0110249Y0153831D01*
X0110100Y0153679D01*
X0109948Y0153530D01*
X0109792Y0153386D01*
X0109633Y0153245D01*
X0109470Y0153108D01*
X0109305Y0152975D01*
X0109135Y0152846D01*
X0108963Y0152722D01*
X0108788Y0152602D01*
X0108610Y0152486D01*
X0108429Y0152374D01*
X0108245Y0152267D01*
X0108059Y0152165D01*
X0107870Y0152067D01*
X0107679Y0151974D01*
X0107486Y0151885D01*
X0107290Y0151801D01*
X0107093Y0151722D01*
X0106894Y0151648D01*
X0106693Y0151579D01*
X0106490Y0151515D01*
X0106286Y0151456D01*
X0106080Y0151402D01*
X0105874Y0151352D01*
X0105666Y0151308D01*
X0105457Y0151270D01*
X0105247Y0151236D01*
X0105036Y0151207D01*
X0104825Y0151184D01*
X0104613Y0151165D01*
X0104401Y0151152D01*
X0104189Y0151145D01*
X0103976Y0151142D01*
X0103763Y0151145D01*
X0103551Y0151152D01*
X0103339Y0151165D01*
X0103127Y0151184D01*
X0102916Y0151207D01*
X0102705Y0151236D01*
X0102495Y0151270D01*
X0102286Y0151308D01*
X0102078Y0151352D01*
X0101872Y0151402D01*
X0101666Y0151456D01*
X0101462Y0151515D01*
X0101259Y0151579D01*
X0101058Y0151648D01*
X0100859Y0151722D01*
X0100662Y0151801D01*
X0100466Y0151885D01*
X0100273Y0151974D01*
X0100082Y0152067D01*
X0099893Y0152165D01*
X0099707Y0152267D01*
X0099523Y0152374D01*
X0099342Y0152486D01*
X0099164Y0152602D01*
X0098989Y0152722D01*
X0098817Y0152846D01*
X0098647Y0152975D01*
X0098482Y0153108D01*
X0098319Y0153245D01*
X0098160Y0153386D01*
X0098004Y0153530D01*
X0097852Y0153679D01*
X0097703Y0153831D01*
X0097559Y0153987D01*
X0097418Y0154146D01*
X0097281Y0154309D01*
X0097148Y0154474D01*
X0097019Y0154644D01*
X0096895Y0154816D01*
X0096775Y0154991D01*
X0096659Y0155169D01*
X0096547Y0155350D01*
X0096440Y0155534D01*
X0096338Y0155720D01*
X0096240Y0155909D01*
X0096147Y0156100D01*
X0096058Y0156293D01*
X0095974Y0156489D01*
X0095895Y0156686D01*
X0095821Y0156885D01*
X0095752Y0157086D01*
X0095688Y0157289D01*
X0095629Y0157493D01*
X0095575Y0157699D01*
X0095525Y0157905D01*
X0095481Y0158113D01*
X0095443Y0158322D01*
X0095409Y0158532D01*
X0095380Y0158743D01*
X0095357Y0158954D01*
X0095338Y0159166D01*
X0095325Y0159378D01*
X0095318Y0159590D01*
X0095315Y0159803D01*
X0035079Y0197992D02*
X0035082Y0198205D01*
X0035089Y0198417D01*
X0035102Y0198629D01*
X0035121Y0198841D01*
X0035144Y0199052D01*
X0035173Y0199263D01*
X0035207Y0199473D01*
X0035245Y0199682D01*
X0035289Y0199890D01*
X0035339Y0200096D01*
X0035393Y0200302D01*
X0035452Y0200506D01*
X0035516Y0200709D01*
X0035585Y0200910D01*
X0035659Y0201109D01*
X0035738Y0201306D01*
X0035822Y0201502D01*
X0035911Y0201695D01*
X0036004Y0201886D01*
X0036102Y0202075D01*
X0036204Y0202261D01*
X0036311Y0202445D01*
X0036423Y0202626D01*
X0036539Y0202804D01*
X0036659Y0202979D01*
X0036783Y0203151D01*
X0036912Y0203321D01*
X0037045Y0203486D01*
X0037182Y0203649D01*
X0037323Y0203808D01*
X0037467Y0203964D01*
X0037616Y0204116D01*
X0037768Y0204265D01*
X0037924Y0204409D01*
X0038083Y0204550D01*
X0038246Y0204687D01*
X0038411Y0204820D01*
X0038581Y0204949D01*
X0038753Y0205073D01*
X0038928Y0205193D01*
X0039106Y0205309D01*
X0039287Y0205421D01*
X0039471Y0205528D01*
X0039657Y0205630D01*
X0039846Y0205728D01*
X0040037Y0205821D01*
X0040230Y0205910D01*
X0040426Y0205994D01*
X0040623Y0206073D01*
X0040822Y0206147D01*
X0041023Y0206216D01*
X0041226Y0206280D01*
X0041430Y0206339D01*
X0041636Y0206393D01*
X0041842Y0206443D01*
X0042050Y0206487D01*
X0042259Y0206525D01*
X0042469Y0206559D01*
X0042680Y0206588D01*
X0042891Y0206611D01*
X0043103Y0206630D01*
X0043315Y0206643D01*
X0043527Y0206650D01*
X0043740Y0206653D01*
X0043953Y0206650D01*
X0044165Y0206643D01*
X0044377Y0206630D01*
X0044589Y0206611D01*
X0044800Y0206588D01*
X0045011Y0206559D01*
X0045221Y0206525D01*
X0045430Y0206487D01*
X0045638Y0206443D01*
X0045844Y0206393D01*
X0046050Y0206339D01*
X0046254Y0206280D01*
X0046457Y0206216D01*
X0046658Y0206147D01*
X0046857Y0206073D01*
X0047054Y0205994D01*
X0047250Y0205910D01*
X0047443Y0205821D01*
X0047634Y0205728D01*
X0047823Y0205630D01*
X0048009Y0205528D01*
X0048193Y0205421D01*
X0048374Y0205309D01*
X0048552Y0205193D01*
X0048727Y0205073D01*
X0048899Y0204949D01*
X0049069Y0204820D01*
X0049234Y0204687D01*
X0049397Y0204550D01*
X0049556Y0204409D01*
X0049712Y0204265D01*
X0049864Y0204116D01*
X0050013Y0203964D01*
X0050157Y0203808D01*
X0050298Y0203649D01*
X0050435Y0203486D01*
X0050568Y0203321D01*
X0050697Y0203151D01*
X0050821Y0202979D01*
X0050941Y0202804D01*
X0051057Y0202626D01*
X0051169Y0202445D01*
X0051276Y0202261D01*
X0051378Y0202075D01*
X0051476Y0201886D01*
X0051569Y0201695D01*
X0051658Y0201502D01*
X0051742Y0201306D01*
X0051821Y0201109D01*
X0051895Y0200910D01*
X0051964Y0200709D01*
X0052028Y0200506D01*
X0052087Y0200302D01*
X0052141Y0200096D01*
X0052191Y0199890D01*
X0052235Y0199682D01*
X0052273Y0199473D01*
X0052307Y0199263D01*
X0052336Y0199052D01*
X0052359Y0198841D01*
X0052378Y0198629D01*
X0052391Y0198417D01*
X0052398Y0198205D01*
X0052401Y0197992D01*
X0052398Y0197779D01*
X0052391Y0197567D01*
X0052378Y0197355D01*
X0052359Y0197143D01*
X0052336Y0196932D01*
X0052307Y0196721D01*
X0052273Y0196511D01*
X0052235Y0196302D01*
X0052191Y0196094D01*
X0052141Y0195888D01*
X0052087Y0195682D01*
X0052028Y0195478D01*
X0051964Y0195275D01*
X0051895Y0195074D01*
X0051821Y0194875D01*
X0051742Y0194678D01*
X0051658Y0194482D01*
X0051569Y0194289D01*
X0051476Y0194098D01*
X0051378Y0193909D01*
X0051276Y0193723D01*
X0051169Y0193539D01*
X0051057Y0193358D01*
X0050941Y0193180D01*
X0050821Y0193005D01*
X0050697Y0192833D01*
X0050568Y0192663D01*
X0050435Y0192498D01*
X0050298Y0192335D01*
X0050157Y0192176D01*
X0050013Y0192020D01*
X0049864Y0191868D01*
X0049712Y0191719D01*
X0049556Y0191575D01*
X0049397Y0191434D01*
X0049234Y0191297D01*
X0049069Y0191164D01*
X0048899Y0191035D01*
X0048727Y0190911D01*
X0048552Y0190791D01*
X0048374Y0190675D01*
X0048193Y0190563D01*
X0048009Y0190456D01*
X0047823Y0190354D01*
X0047634Y0190256D01*
X0047443Y0190163D01*
X0047250Y0190074D01*
X0047054Y0189990D01*
X0046857Y0189911D01*
X0046658Y0189837D01*
X0046457Y0189768D01*
X0046254Y0189704D01*
X0046050Y0189645D01*
X0045844Y0189591D01*
X0045638Y0189541D01*
X0045430Y0189497D01*
X0045221Y0189459D01*
X0045011Y0189425D01*
X0044800Y0189396D01*
X0044589Y0189373D01*
X0044377Y0189354D01*
X0044165Y0189341D01*
X0043953Y0189334D01*
X0043740Y0189331D01*
X0043527Y0189334D01*
X0043315Y0189341D01*
X0043103Y0189354D01*
X0042891Y0189373D01*
X0042680Y0189396D01*
X0042469Y0189425D01*
X0042259Y0189459D01*
X0042050Y0189497D01*
X0041842Y0189541D01*
X0041636Y0189591D01*
X0041430Y0189645D01*
X0041226Y0189704D01*
X0041023Y0189768D01*
X0040822Y0189837D01*
X0040623Y0189911D01*
X0040426Y0189990D01*
X0040230Y0190074D01*
X0040037Y0190163D01*
X0039846Y0190256D01*
X0039657Y0190354D01*
X0039471Y0190456D01*
X0039287Y0190563D01*
X0039106Y0190675D01*
X0038928Y0190791D01*
X0038753Y0190911D01*
X0038581Y0191035D01*
X0038411Y0191164D01*
X0038246Y0191297D01*
X0038083Y0191434D01*
X0037924Y0191575D01*
X0037768Y0191719D01*
X0037616Y0191868D01*
X0037467Y0192020D01*
X0037323Y0192176D01*
X0037182Y0192335D01*
X0037045Y0192498D01*
X0036912Y0192663D01*
X0036783Y0192833D01*
X0036659Y0193005D01*
X0036539Y0193180D01*
X0036423Y0193358D01*
X0036311Y0193539D01*
X0036204Y0193723D01*
X0036102Y0193909D01*
X0036004Y0194098D01*
X0035911Y0194289D01*
X0035822Y0194482D01*
X0035738Y0194678D01*
X0035659Y0194875D01*
X0035585Y0195074D01*
X0035516Y0195275D01*
X0035452Y0195478D01*
X0035393Y0195682D01*
X0035339Y0195888D01*
X0035289Y0196094D01*
X0035245Y0196302D01*
X0035207Y0196511D01*
X0035173Y0196721D01*
X0035144Y0196932D01*
X0035121Y0197143D01*
X0035102Y0197355D01*
X0035089Y0197567D01*
X0035082Y0197779D01*
X0035079Y0197992D01*
X0021929Y0217677D02*
X0021553Y0217680D01*
X0021176Y0217673D01*
X0020800Y0217658D01*
X0020425Y0217633D01*
X0020050Y0217599D01*
X0019676Y0217556D01*
X0019304Y0217503D01*
X0018932Y0217442D01*
X0018563Y0217372D01*
X0018195Y0217293D01*
X0017829Y0217204D01*
X0017465Y0217107D01*
X0017104Y0217002D01*
X0016746Y0216887D01*
X0016390Y0216764D01*
X0016038Y0216632D01*
X0015689Y0216491D01*
X0015343Y0216342D01*
X0015002Y0216185D01*
X0014664Y0216020D01*
X0014330Y0215846D01*
X0014000Y0215664D01*
X0013675Y0215474D01*
X0013355Y0215277D01*
X0013040Y0215071D01*
X0012730Y0214858D01*
X0012425Y0214638D01*
X0012125Y0214410D01*
X0011831Y0214175D01*
X0011543Y0213933D01*
X0011261Y0213684D01*
X0010985Y0213428D01*
X0010716Y0213166D01*
X0010452Y0212897D01*
X0010196Y0212622D01*
X0009946Y0212340D01*
X0009703Y0212053D01*
X0009468Y0211759D01*
X0009239Y0211460D01*
X0009018Y0211156D01*
X0008804Y0210846D01*
X0008598Y0210532D01*
X0008399Y0210212D01*
X0008209Y0209887D01*
X0008026Y0209558D01*
X0007852Y0209225D01*
X0007685Y0208888D01*
X0007527Y0208546D01*
X0007377Y0208201D01*
X0007236Y0207852D01*
X0007103Y0207500D01*
X0006979Y0207145D01*
X0006863Y0206787D01*
X0006756Y0206426D01*
X0006658Y0206063D01*
X0006569Y0205697D01*
X0006489Y0205330D01*
X0006418Y0204960D01*
X0006356Y0204589D01*
X0006303Y0204216D01*
X0006259Y0203843D01*
X0006224Y0203468D01*
X0006198Y0203093D01*
X0006181Y0202717D01*
X0006181Y0201929D02*
X0006181Y0026732D01*
X0006181Y0026733D02*
X0006139Y0026303D01*
X0006106Y0025872D01*
X0006085Y0025441D01*
X0006074Y0025010D01*
X0006073Y0024578D01*
X0006083Y0024146D01*
X0006103Y0023715D01*
X0006133Y0023285D01*
X0006175Y0022855D01*
X0006226Y0022426D01*
X0006288Y0021999D01*
X0006360Y0021573D01*
X0006442Y0021150D01*
X0006535Y0020728D01*
X0006638Y0020309D01*
X0006751Y0019892D01*
X0006874Y0019478D01*
X0007007Y0019068D01*
X0007150Y0018660D01*
X0007302Y0018256D01*
X0007465Y0017856D01*
X0007637Y0017461D01*
X0007818Y0017069D01*
X0008009Y0016682D01*
X0008210Y0016299D01*
X0008419Y0015922D01*
X0008638Y0015550D01*
X0008866Y0015183D01*
X0009102Y0014822D01*
X0009347Y0014466D01*
X0009601Y0014117D01*
X0009863Y0013774D01*
X0010133Y0013437D01*
X0010411Y0013107D01*
X0010698Y0012784D01*
X0010992Y0012468D01*
X0011293Y0012159D01*
X0011602Y0011858D01*
X0011918Y0011564D01*
X0012241Y0011277D01*
X0012571Y0010999D01*
X0012908Y0010729D01*
X0013251Y0010467D01*
X0013600Y0010213D01*
X0013956Y0009968D01*
X0014317Y0009732D01*
X0014684Y0009504D01*
X0015056Y0009285D01*
X0015433Y0009076D01*
X0015816Y0008875D01*
X0016203Y0008684D01*
X0016595Y0008503D01*
X0016990Y0008331D01*
X0017390Y0008168D01*
X0017794Y0008016D01*
X0018202Y0007873D01*
X0018612Y0007740D01*
X0019026Y0007617D01*
X0019443Y0007504D01*
X0019862Y0007401D01*
X0020284Y0007308D01*
X0020707Y0007226D01*
X0021133Y0007154D01*
X0021560Y0007092D01*
X0021989Y0007041D01*
X0022419Y0006999D01*
X0022849Y0006969D01*
X0023280Y0006949D01*
X0023712Y0006939D01*
X0024144Y0006940D01*
X0024575Y0006951D01*
X0025006Y0006972D01*
X0025437Y0007005D01*
X0025867Y0007047D01*
X0025866Y0007047D02*
X0299646Y0007047D01*
X0329331Y0026732D02*
X0329331Y0197992D01*
X0309646Y0217677D02*
X0021929Y0217677D01*
X0228386Y0160197D02*
X0228389Y0160410D01*
X0228396Y0160622D01*
X0228409Y0160834D01*
X0228428Y0161046D01*
X0228451Y0161257D01*
X0228480Y0161468D01*
X0228514Y0161678D01*
X0228552Y0161887D01*
X0228596Y0162095D01*
X0228646Y0162301D01*
X0228700Y0162507D01*
X0228759Y0162711D01*
X0228823Y0162914D01*
X0228892Y0163115D01*
X0228966Y0163314D01*
X0229045Y0163511D01*
X0229129Y0163707D01*
X0229218Y0163900D01*
X0229311Y0164091D01*
X0229409Y0164280D01*
X0229511Y0164466D01*
X0229618Y0164650D01*
X0229730Y0164831D01*
X0229846Y0165009D01*
X0229966Y0165184D01*
X0230090Y0165356D01*
X0230219Y0165526D01*
X0230352Y0165691D01*
X0230489Y0165854D01*
X0230630Y0166013D01*
X0230774Y0166169D01*
X0230923Y0166321D01*
X0231075Y0166470D01*
X0231231Y0166614D01*
X0231390Y0166755D01*
X0231553Y0166892D01*
X0231718Y0167025D01*
X0231888Y0167154D01*
X0232060Y0167278D01*
X0232235Y0167398D01*
X0232413Y0167514D01*
X0232594Y0167626D01*
X0232778Y0167733D01*
X0232964Y0167835D01*
X0233153Y0167933D01*
X0233344Y0168026D01*
X0233537Y0168115D01*
X0233733Y0168199D01*
X0233930Y0168278D01*
X0234129Y0168352D01*
X0234330Y0168421D01*
X0234533Y0168485D01*
X0234737Y0168544D01*
X0234943Y0168598D01*
X0235149Y0168648D01*
X0235357Y0168692D01*
X0235566Y0168730D01*
X0235776Y0168764D01*
X0235987Y0168793D01*
X0236198Y0168816D01*
X0236410Y0168835D01*
X0236622Y0168848D01*
X0236834Y0168855D01*
X0237047Y0168858D01*
X0237260Y0168855D01*
X0237472Y0168848D01*
X0237684Y0168835D01*
X0237896Y0168816D01*
X0238107Y0168793D01*
X0238318Y0168764D01*
X0238528Y0168730D01*
X0238737Y0168692D01*
X0238945Y0168648D01*
X0239151Y0168598D01*
X0239357Y0168544D01*
X0239561Y0168485D01*
X0239764Y0168421D01*
X0239965Y0168352D01*
X0240164Y0168278D01*
X0240361Y0168199D01*
X0240557Y0168115D01*
X0240750Y0168026D01*
X0240941Y0167933D01*
X0241130Y0167835D01*
X0241316Y0167733D01*
X0241500Y0167626D01*
X0241681Y0167514D01*
X0241859Y0167398D01*
X0242034Y0167278D01*
X0242206Y0167154D01*
X0242376Y0167025D01*
X0242541Y0166892D01*
X0242704Y0166755D01*
X0242863Y0166614D01*
X0243019Y0166470D01*
X0243171Y0166321D01*
X0243320Y0166169D01*
X0243464Y0166013D01*
X0243605Y0165854D01*
X0243742Y0165691D01*
X0243875Y0165526D01*
X0244004Y0165356D01*
X0244128Y0165184D01*
X0244248Y0165009D01*
X0244364Y0164831D01*
X0244476Y0164650D01*
X0244583Y0164466D01*
X0244685Y0164280D01*
X0244783Y0164091D01*
X0244876Y0163900D01*
X0244965Y0163707D01*
X0245049Y0163511D01*
X0245128Y0163314D01*
X0245202Y0163115D01*
X0245271Y0162914D01*
X0245335Y0162711D01*
X0245394Y0162507D01*
X0245448Y0162301D01*
X0245498Y0162095D01*
X0245542Y0161887D01*
X0245580Y0161678D01*
X0245614Y0161468D01*
X0245643Y0161257D01*
X0245666Y0161046D01*
X0245685Y0160834D01*
X0245698Y0160622D01*
X0245705Y0160410D01*
X0245708Y0160197D01*
X0245705Y0159984D01*
X0245698Y0159772D01*
X0245685Y0159560D01*
X0245666Y0159348D01*
X0245643Y0159137D01*
X0245614Y0158926D01*
X0245580Y0158716D01*
X0245542Y0158507D01*
X0245498Y0158299D01*
X0245448Y0158093D01*
X0245394Y0157887D01*
X0245335Y0157683D01*
X0245271Y0157480D01*
X0245202Y0157279D01*
X0245128Y0157080D01*
X0245049Y0156883D01*
X0244965Y0156687D01*
X0244876Y0156494D01*
X0244783Y0156303D01*
X0244685Y0156114D01*
X0244583Y0155928D01*
X0244476Y0155744D01*
X0244364Y0155563D01*
X0244248Y0155385D01*
X0244128Y0155210D01*
X0244004Y0155038D01*
X0243875Y0154868D01*
X0243742Y0154703D01*
X0243605Y0154540D01*
X0243464Y0154381D01*
X0243320Y0154225D01*
X0243171Y0154073D01*
X0243019Y0153924D01*
X0242863Y0153780D01*
X0242704Y0153639D01*
X0242541Y0153502D01*
X0242376Y0153369D01*
X0242206Y0153240D01*
X0242034Y0153116D01*
X0241859Y0152996D01*
X0241681Y0152880D01*
X0241500Y0152768D01*
X0241316Y0152661D01*
X0241130Y0152559D01*
X0240941Y0152461D01*
X0240750Y0152368D01*
X0240557Y0152279D01*
X0240361Y0152195D01*
X0240164Y0152116D01*
X0239965Y0152042D01*
X0239764Y0151973D01*
X0239561Y0151909D01*
X0239357Y0151850D01*
X0239151Y0151796D01*
X0238945Y0151746D01*
X0238737Y0151702D01*
X0238528Y0151664D01*
X0238318Y0151630D01*
X0238107Y0151601D01*
X0237896Y0151578D01*
X0237684Y0151559D01*
X0237472Y0151546D01*
X0237260Y0151539D01*
X0237047Y0151536D01*
X0236834Y0151539D01*
X0236622Y0151546D01*
X0236410Y0151559D01*
X0236198Y0151578D01*
X0235987Y0151601D01*
X0235776Y0151630D01*
X0235566Y0151664D01*
X0235357Y0151702D01*
X0235149Y0151746D01*
X0234943Y0151796D01*
X0234737Y0151850D01*
X0234533Y0151909D01*
X0234330Y0151973D01*
X0234129Y0152042D01*
X0233930Y0152116D01*
X0233733Y0152195D01*
X0233537Y0152279D01*
X0233344Y0152368D01*
X0233153Y0152461D01*
X0232964Y0152559D01*
X0232778Y0152661D01*
X0232594Y0152768D01*
X0232413Y0152880D01*
X0232235Y0152996D01*
X0232060Y0153116D01*
X0231888Y0153240D01*
X0231718Y0153369D01*
X0231553Y0153502D01*
X0231390Y0153639D01*
X0231231Y0153780D01*
X0231075Y0153924D01*
X0230923Y0154073D01*
X0230774Y0154225D01*
X0230630Y0154381D01*
X0230489Y0154540D01*
X0230352Y0154703D01*
X0230219Y0154868D01*
X0230090Y0155038D01*
X0229966Y0155210D01*
X0229846Y0155385D01*
X0229730Y0155563D01*
X0229618Y0155744D01*
X0229511Y0155928D01*
X0229409Y0156114D01*
X0229311Y0156303D01*
X0229218Y0156494D01*
X0229129Y0156687D01*
X0229045Y0156883D01*
X0228966Y0157080D01*
X0228892Y0157279D01*
X0228823Y0157480D01*
X0228759Y0157683D01*
X0228700Y0157887D01*
X0228646Y0158093D01*
X0228596Y0158299D01*
X0228552Y0158507D01*
X0228514Y0158716D01*
X0228480Y0158926D01*
X0228451Y0159137D01*
X0228428Y0159348D01*
X0228409Y0159560D01*
X0228396Y0159772D01*
X0228389Y0159984D01*
X0228386Y0160197D01*
X0290985Y0197992D02*
X0290988Y0198205D01*
X0290995Y0198417D01*
X0291008Y0198629D01*
X0291027Y0198841D01*
X0291050Y0199052D01*
X0291079Y0199263D01*
X0291113Y0199473D01*
X0291151Y0199682D01*
X0291195Y0199890D01*
X0291245Y0200096D01*
X0291299Y0200302D01*
X0291358Y0200506D01*
X0291422Y0200709D01*
X0291491Y0200910D01*
X0291565Y0201109D01*
X0291644Y0201306D01*
X0291728Y0201502D01*
X0291817Y0201695D01*
X0291910Y0201886D01*
X0292008Y0202075D01*
X0292110Y0202261D01*
X0292217Y0202445D01*
X0292329Y0202626D01*
X0292445Y0202804D01*
X0292565Y0202979D01*
X0292689Y0203151D01*
X0292818Y0203321D01*
X0292951Y0203486D01*
X0293088Y0203649D01*
X0293229Y0203808D01*
X0293373Y0203964D01*
X0293522Y0204116D01*
X0293674Y0204265D01*
X0293830Y0204409D01*
X0293989Y0204550D01*
X0294152Y0204687D01*
X0294317Y0204820D01*
X0294487Y0204949D01*
X0294659Y0205073D01*
X0294834Y0205193D01*
X0295012Y0205309D01*
X0295193Y0205421D01*
X0295377Y0205528D01*
X0295563Y0205630D01*
X0295752Y0205728D01*
X0295943Y0205821D01*
X0296136Y0205910D01*
X0296332Y0205994D01*
X0296529Y0206073D01*
X0296728Y0206147D01*
X0296929Y0206216D01*
X0297132Y0206280D01*
X0297336Y0206339D01*
X0297542Y0206393D01*
X0297748Y0206443D01*
X0297956Y0206487D01*
X0298165Y0206525D01*
X0298375Y0206559D01*
X0298586Y0206588D01*
X0298797Y0206611D01*
X0299009Y0206630D01*
X0299221Y0206643D01*
X0299433Y0206650D01*
X0299646Y0206653D01*
X0299859Y0206650D01*
X0300071Y0206643D01*
X0300283Y0206630D01*
X0300495Y0206611D01*
X0300706Y0206588D01*
X0300917Y0206559D01*
X0301127Y0206525D01*
X0301336Y0206487D01*
X0301544Y0206443D01*
X0301750Y0206393D01*
X0301956Y0206339D01*
X0302160Y0206280D01*
X0302363Y0206216D01*
X0302564Y0206147D01*
X0302763Y0206073D01*
X0302960Y0205994D01*
X0303156Y0205910D01*
X0303349Y0205821D01*
X0303540Y0205728D01*
X0303729Y0205630D01*
X0303915Y0205528D01*
X0304099Y0205421D01*
X0304280Y0205309D01*
X0304458Y0205193D01*
X0304633Y0205073D01*
X0304805Y0204949D01*
X0304975Y0204820D01*
X0305140Y0204687D01*
X0305303Y0204550D01*
X0305462Y0204409D01*
X0305618Y0204265D01*
X0305770Y0204116D01*
X0305919Y0203964D01*
X0306063Y0203808D01*
X0306204Y0203649D01*
X0306341Y0203486D01*
X0306474Y0203321D01*
X0306603Y0203151D01*
X0306727Y0202979D01*
X0306847Y0202804D01*
X0306963Y0202626D01*
X0307075Y0202445D01*
X0307182Y0202261D01*
X0307284Y0202075D01*
X0307382Y0201886D01*
X0307475Y0201695D01*
X0307564Y0201502D01*
X0307648Y0201306D01*
X0307727Y0201109D01*
X0307801Y0200910D01*
X0307870Y0200709D01*
X0307934Y0200506D01*
X0307993Y0200302D01*
X0308047Y0200096D01*
X0308097Y0199890D01*
X0308141Y0199682D01*
X0308179Y0199473D01*
X0308213Y0199263D01*
X0308242Y0199052D01*
X0308265Y0198841D01*
X0308284Y0198629D01*
X0308297Y0198417D01*
X0308304Y0198205D01*
X0308307Y0197992D01*
X0308304Y0197779D01*
X0308297Y0197567D01*
X0308284Y0197355D01*
X0308265Y0197143D01*
X0308242Y0196932D01*
X0308213Y0196721D01*
X0308179Y0196511D01*
X0308141Y0196302D01*
X0308097Y0196094D01*
X0308047Y0195888D01*
X0307993Y0195682D01*
X0307934Y0195478D01*
X0307870Y0195275D01*
X0307801Y0195074D01*
X0307727Y0194875D01*
X0307648Y0194678D01*
X0307564Y0194482D01*
X0307475Y0194289D01*
X0307382Y0194098D01*
X0307284Y0193909D01*
X0307182Y0193723D01*
X0307075Y0193539D01*
X0306963Y0193358D01*
X0306847Y0193180D01*
X0306727Y0193005D01*
X0306603Y0192833D01*
X0306474Y0192663D01*
X0306341Y0192498D01*
X0306204Y0192335D01*
X0306063Y0192176D01*
X0305919Y0192020D01*
X0305770Y0191868D01*
X0305618Y0191719D01*
X0305462Y0191575D01*
X0305303Y0191434D01*
X0305140Y0191297D01*
X0304975Y0191164D01*
X0304805Y0191035D01*
X0304633Y0190911D01*
X0304458Y0190791D01*
X0304280Y0190675D01*
X0304099Y0190563D01*
X0303915Y0190456D01*
X0303729Y0190354D01*
X0303540Y0190256D01*
X0303349Y0190163D01*
X0303156Y0190074D01*
X0302960Y0189990D01*
X0302763Y0189911D01*
X0302564Y0189837D01*
X0302363Y0189768D01*
X0302160Y0189704D01*
X0301956Y0189645D01*
X0301750Y0189591D01*
X0301544Y0189541D01*
X0301336Y0189497D01*
X0301127Y0189459D01*
X0300917Y0189425D01*
X0300706Y0189396D01*
X0300495Y0189373D01*
X0300283Y0189354D01*
X0300071Y0189341D01*
X0299859Y0189334D01*
X0299646Y0189331D01*
X0299433Y0189334D01*
X0299221Y0189341D01*
X0299009Y0189354D01*
X0298797Y0189373D01*
X0298586Y0189396D01*
X0298375Y0189425D01*
X0298165Y0189459D01*
X0297956Y0189497D01*
X0297748Y0189541D01*
X0297542Y0189591D01*
X0297336Y0189645D01*
X0297132Y0189704D01*
X0296929Y0189768D01*
X0296728Y0189837D01*
X0296529Y0189911D01*
X0296332Y0189990D01*
X0296136Y0190074D01*
X0295943Y0190163D01*
X0295752Y0190256D01*
X0295563Y0190354D01*
X0295377Y0190456D01*
X0295193Y0190563D01*
X0295012Y0190675D01*
X0294834Y0190791D01*
X0294659Y0190911D01*
X0294487Y0191035D01*
X0294317Y0191164D01*
X0294152Y0191297D01*
X0293989Y0191434D01*
X0293830Y0191575D01*
X0293674Y0191719D01*
X0293522Y0191868D01*
X0293373Y0192020D01*
X0293229Y0192176D01*
X0293088Y0192335D01*
X0292951Y0192498D01*
X0292818Y0192663D01*
X0292689Y0192833D01*
X0292565Y0193005D01*
X0292445Y0193180D01*
X0292329Y0193358D01*
X0292217Y0193539D01*
X0292110Y0193723D01*
X0292008Y0193909D01*
X0291910Y0194098D01*
X0291817Y0194289D01*
X0291728Y0194482D01*
X0291644Y0194678D01*
X0291565Y0194875D01*
X0291491Y0195074D01*
X0291422Y0195275D01*
X0291358Y0195478D01*
X0291299Y0195682D01*
X0291245Y0195888D01*
X0291195Y0196094D01*
X0291151Y0196302D01*
X0291113Y0196511D01*
X0291079Y0196721D01*
X0291050Y0196932D01*
X0291027Y0197143D01*
X0291008Y0197355D01*
X0290995Y0197567D01*
X0290988Y0197779D01*
X0290985Y0197992D01*
X0228583Y0026929D02*
X0228586Y0027142D01*
X0228593Y0027354D01*
X0228606Y0027566D01*
X0228625Y0027778D01*
X0228648Y0027989D01*
X0228677Y0028200D01*
X0228711Y0028410D01*
X0228749Y0028619D01*
X0228793Y0028827D01*
X0228843Y0029033D01*
X0228897Y0029239D01*
X0228956Y0029443D01*
X0229020Y0029646D01*
X0229089Y0029847D01*
X0229163Y0030046D01*
X0229242Y0030243D01*
X0229326Y0030439D01*
X0229415Y0030632D01*
X0229508Y0030823D01*
X0229606Y0031012D01*
X0229708Y0031198D01*
X0229815Y0031382D01*
X0229927Y0031563D01*
X0230043Y0031741D01*
X0230163Y0031916D01*
X0230287Y0032088D01*
X0230416Y0032258D01*
X0230549Y0032423D01*
X0230686Y0032586D01*
X0230827Y0032745D01*
X0230971Y0032901D01*
X0231120Y0033053D01*
X0231272Y0033202D01*
X0231428Y0033346D01*
X0231587Y0033487D01*
X0231750Y0033624D01*
X0231915Y0033757D01*
X0232085Y0033886D01*
X0232257Y0034010D01*
X0232432Y0034130D01*
X0232610Y0034246D01*
X0232791Y0034358D01*
X0232975Y0034465D01*
X0233161Y0034567D01*
X0233350Y0034665D01*
X0233541Y0034758D01*
X0233734Y0034847D01*
X0233930Y0034931D01*
X0234127Y0035010D01*
X0234326Y0035084D01*
X0234527Y0035153D01*
X0234730Y0035217D01*
X0234934Y0035276D01*
X0235140Y0035330D01*
X0235346Y0035380D01*
X0235554Y0035424D01*
X0235763Y0035462D01*
X0235973Y0035496D01*
X0236184Y0035525D01*
X0236395Y0035548D01*
X0236607Y0035567D01*
X0236819Y0035580D01*
X0237031Y0035587D01*
X0237244Y0035590D01*
X0237457Y0035587D01*
X0237669Y0035580D01*
X0237881Y0035567D01*
X0238093Y0035548D01*
X0238304Y0035525D01*
X0238515Y0035496D01*
X0238725Y0035462D01*
X0238934Y0035424D01*
X0239142Y0035380D01*
X0239348Y0035330D01*
X0239554Y0035276D01*
X0239758Y0035217D01*
X0239961Y0035153D01*
X0240162Y0035084D01*
X0240361Y0035010D01*
X0240558Y0034931D01*
X0240754Y0034847D01*
X0240947Y0034758D01*
X0241138Y0034665D01*
X0241327Y0034567D01*
X0241513Y0034465D01*
X0241697Y0034358D01*
X0241878Y0034246D01*
X0242056Y0034130D01*
X0242231Y0034010D01*
X0242403Y0033886D01*
X0242573Y0033757D01*
X0242738Y0033624D01*
X0242901Y0033487D01*
X0243060Y0033346D01*
X0243216Y0033202D01*
X0243368Y0033053D01*
X0243517Y0032901D01*
X0243661Y0032745D01*
X0243802Y0032586D01*
X0243939Y0032423D01*
X0244072Y0032258D01*
X0244201Y0032088D01*
X0244325Y0031916D01*
X0244445Y0031741D01*
X0244561Y0031563D01*
X0244673Y0031382D01*
X0244780Y0031198D01*
X0244882Y0031012D01*
X0244980Y0030823D01*
X0245073Y0030632D01*
X0245162Y0030439D01*
X0245246Y0030243D01*
X0245325Y0030046D01*
X0245399Y0029847D01*
X0245468Y0029646D01*
X0245532Y0029443D01*
X0245591Y0029239D01*
X0245645Y0029033D01*
X0245695Y0028827D01*
X0245739Y0028619D01*
X0245777Y0028410D01*
X0245811Y0028200D01*
X0245840Y0027989D01*
X0245863Y0027778D01*
X0245882Y0027566D01*
X0245895Y0027354D01*
X0245902Y0027142D01*
X0245905Y0026929D01*
X0245902Y0026716D01*
X0245895Y0026504D01*
X0245882Y0026292D01*
X0245863Y0026080D01*
X0245840Y0025869D01*
X0245811Y0025658D01*
X0245777Y0025448D01*
X0245739Y0025239D01*
X0245695Y0025031D01*
X0245645Y0024825D01*
X0245591Y0024619D01*
X0245532Y0024415D01*
X0245468Y0024212D01*
X0245399Y0024011D01*
X0245325Y0023812D01*
X0245246Y0023615D01*
X0245162Y0023419D01*
X0245073Y0023226D01*
X0244980Y0023035D01*
X0244882Y0022846D01*
X0244780Y0022660D01*
X0244673Y0022476D01*
X0244561Y0022295D01*
X0244445Y0022117D01*
X0244325Y0021942D01*
X0244201Y0021770D01*
X0244072Y0021600D01*
X0243939Y0021435D01*
X0243802Y0021272D01*
X0243661Y0021113D01*
X0243517Y0020957D01*
X0243368Y0020805D01*
X0243216Y0020656D01*
X0243060Y0020512D01*
X0242901Y0020371D01*
X0242738Y0020234D01*
X0242573Y0020101D01*
X0242403Y0019972D01*
X0242231Y0019848D01*
X0242056Y0019728D01*
X0241878Y0019612D01*
X0241697Y0019500D01*
X0241513Y0019393D01*
X0241327Y0019291D01*
X0241138Y0019193D01*
X0240947Y0019100D01*
X0240754Y0019011D01*
X0240558Y0018927D01*
X0240361Y0018848D01*
X0240162Y0018774D01*
X0239961Y0018705D01*
X0239758Y0018641D01*
X0239554Y0018582D01*
X0239348Y0018528D01*
X0239142Y0018478D01*
X0238934Y0018434D01*
X0238725Y0018396D01*
X0238515Y0018362D01*
X0238304Y0018333D01*
X0238093Y0018310D01*
X0237881Y0018291D01*
X0237669Y0018278D01*
X0237457Y0018271D01*
X0237244Y0018268D01*
X0237031Y0018271D01*
X0236819Y0018278D01*
X0236607Y0018291D01*
X0236395Y0018310D01*
X0236184Y0018333D01*
X0235973Y0018362D01*
X0235763Y0018396D01*
X0235554Y0018434D01*
X0235346Y0018478D01*
X0235140Y0018528D01*
X0234934Y0018582D01*
X0234730Y0018641D01*
X0234527Y0018705D01*
X0234326Y0018774D01*
X0234127Y0018848D01*
X0233930Y0018927D01*
X0233734Y0019011D01*
X0233541Y0019100D01*
X0233350Y0019193D01*
X0233161Y0019291D01*
X0232975Y0019393D01*
X0232791Y0019500D01*
X0232610Y0019612D01*
X0232432Y0019728D01*
X0232257Y0019848D01*
X0232085Y0019972D01*
X0231915Y0020101D01*
X0231750Y0020234D01*
X0231587Y0020371D01*
X0231428Y0020512D01*
X0231272Y0020656D01*
X0231120Y0020805D01*
X0230971Y0020957D01*
X0230827Y0021113D01*
X0230686Y0021272D01*
X0230549Y0021435D01*
X0230416Y0021600D01*
X0230287Y0021770D01*
X0230163Y0021942D01*
X0230043Y0022117D01*
X0229927Y0022295D01*
X0229815Y0022476D01*
X0229708Y0022660D01*
X0229606Y0022846D01*
X0229508Y0023035D01*
X0229415Y0023226D01*
X0229326Y0023419D01*
X0229242Y0023615D01*
X0229163Y0023812D01*
X0229089Y0024011D01*
X0229020Y0024212D01*
X0228956Y0024415D01*
X0228897Y0024619D01*
X0228843Y0024825D01*
X0228793Y0025031D01*
X0228749Y0025239D01*
X0228711Y0025448D01*
X0228677Y0025658D01*
X0228648Y0025869D01*
X0228625Y0026080D01*
X0228606Y0026292D01*
X0228593Y0026504D01*
X0228586Y0026716D01*
X0228583Y0026929D01*
D14*
X0231338Y0026929D02*
X0231340Y0027082D01*
X0231346Y0027236D01*
X0231356Y0027389D01*
X0231370Y0027541D01*
X0231388Y0027694D01*
X0231410Y0027845D01*
X0231435Y0027996D01*
X0231465Y0028147D01*
X0231499Y0028297D01*
X0231536Y0028445D01*
X0231577Y0028593D01*
X0231622Y0028739D01*
X0231671Y0028885D01*
X0231724Y0029029D01*
X0231780Y0029171D01*
X0231840Y0029312D01*
X0231904Y0029452D01*
X0231971Y0029590D01*
X0232042Y0029726D01*
X0232117Y0029860D01*
X0232194Y0029992D01*
X0232276Y0030122D01*
X0232360Y0030250D01*
X0232448Y0030376D01*
X0232539Y0030499D01*
X0232633Y0030620D01*
X0232731Y0030738D01*
X0232831Y0030854D01*
X0232935Y0030967D01*
X0233041Y0031078D01*
X0233150Y0031186D01*
X0233262Y0031291D01*
X0233376Y0031392D01*
X0233494Y0031491D01*
X0233613Y0031587D01*
X0233735Y0031680D01*
X0233860Y0031769D01*
X0233987Y0031856D01*
X0234116Y0031938D01*
X0234247Y0032018D01*
X0234380Y0032094D01*
X0234515Y0032167D01*
X0234652Y0032236D01*
X0234791Y0032301D01*
X0234931Y0032363D01*
X0235073Y0032421D01*
X0235216Y0032476D01*
X0235361Y0032527D01*
X0235507Y0032574D01*
X0235654Y0032617D01*
X0235802Y0032656D01*
X0235951Y0032692D01*
X0236101Y0032723D01*
X0236252Y0032751D01*
X0236403Y0032775D01*
X0236556Y0032795D01*
X0236708Y0032811D01*
X0236861Y0032823D01*
X0237014Y0032831D01*
X0237167Y0032835D01*
X0237321Y0032835D01*
X0237474Y0032831D01*
X0237627Y0032823D01*
X0237780Y0032811D01*
X0237932Y0032795D01*
X0238085Y0032775D01*
X0238236Y0032751D01*
X0238387Y0032723D01*
X0238537Y0032692D01*
X0238686Y0032656D01*
X0238834Y0032617D01*
X0238981Y0032574D01*
X0239127Y0032527D01*
X0239272Y0032476D01*
X0239415Y0032421D01*
X0239557Y0032363D01*
X0239697Y0032301D01*
X0239836Y0032236D01*
X0239973Y0032167D01*
X0240108Y0032094D01*
X0240241Y0032018D01*
X0240372Y0031938D01*
X0240501Y0031856D01*
X0240628Y0031769D01*
X0240753Y0031680D01*
X0240875Y0031587D01*
X0240994Y0031491D01*
X0241112Y0031392D01*
X0241226Y0031291D01*
X0241338Y0031186D01*
X0241447Y0031078D01*
X0241553Y0030967D01*
X0241657Y0030854D01*
X0241757Y0030738D01*
X0241855Y0030620D01*
X0241949Y0030499D01*
X0242040Y0030376D01*
X0242128Y0030250D01*
X0242212Y0030122D01*
X0242294Y0029992D01*
X0242371Y0029860D01*
X0242446Y0029726D01*
X0242517Y0029590D01*
X0242584Y0029452D01*
X0242648Y0029312D01*
X0242708Y0029171D01*
X0242764Y0029029D01*
X0242817Y0028885D01*
X0242866Y0028739D01*
X0242911Y0028593D01*
X0242952Y0028445D01*
X0242989Y0028297D01*
X0243023Y0028147D01*
X0243053Y0027996D01*
X0243078Y0027845D01*
X0243100Y0027694D01*
X0243118Y0027541D01*
X0243132Y0027389D01*
X0243142Y0027236D01*
X0243148Y0027082D01*
X0243150Y0026929D01*
X0243148Y0026776D01*
X0243142Y0026622D01*
X0243132Y0026469D01*
X0243118Y0026317D01*
X0243100Y0026164D01*
X0243078Y0026013D01*
X0243053Y0025862D01*
X0243023Y0025711D01*
X0242989Y0025561D01*
X0242952Y0025413D01*
X0242911Y0025265D01*
X0242866Y0025119D01*
X0242817Y0024973D01*
X0242764Y0024829D01*
X0242708Y0024687D01*
X0242648Y0024546D01*
X0242584Y0024406D01*
X0242517Y0024268D01*
X0242446Y0024132D01*
X0242371Y0023998D01*
X0242294Y0023866D01*
X0242212Y0023736D01*
X0242128Y0023608D01*
X0242040Y0023482D01*
X0241949Y0023359D01*
X0241855Y0023238D01*
X0241757Y0023120D01*
X0241657Y0023004D01*
X0241553Y0022891D01*
X0241447Y0022780D01*
X0241338Y0022672D01*
X0241226Y0022567D01*
X0241112Y0022466D01*
X0240994Y0022367D01*
X0240875Y0022271D01*
X0240753Y0022178D01*
X0240628Y0022089D01*
X0240501Y0022002D01*
X0240372Y0021920D01*
X0240241Y0021840D01*
X0240108Y0021764D01*
X0239973Y0021691D01*
X0239836Y0021622D01*
X0239697Y0021557D01*
X0239557Y0021495D01*
X0239415Y0021437D01*
X0239272Y0021382D01*
X0239127Y0021331D01*
X0238981Y0021284D01*
X0238834Y0021241D01*
X0238686Y0021202D01*
X0238537Y0021166D01*
X0238387Y0021135D01*
X0238236Y0021107D01*
X0238085Y0021083D01*
X0237932Y0021063D01*
X0237780Y0021047D01*
X0237627Y0021035D01*
X0237474Y0021027D01*
X0237321Y0021023D01*
X0237167Y0021023D01*
X0237014Y0021027D01*
X0236861Y0021035D01*
X0236708Y0021047D01*
X0236556Y0021063D01*
X0236403Y0021083D01*
X0236252Y0021107D01*
X0236101Y0021135D01*
X0235951Y0021166D01*
X0235802Y0021202D01*
X0235654Y0021241D01*
X0235507Y0021284D01*
X0235361Y0021331D01*
X0235216Y0021382D01*
X0235073Y0021437D01*
X0234931Y0021495D01*
X0234791Y0021557D01*
X0234652Y0021622D01*
X0234515Y0021691D01*
X0234380Y0021764D01*
X0234247Y0021840D01*
X0234116Y0021920D01*
X0233987Y0022002D01*
X0233860Y0022089D01*
X0233735Y0022178D01*
X0233613Y0022271D01*
X0233494Y0022367D01*
X0233376Y0022466D01*
X0233262Y0022567D01*
X0233150Y0022672D01*
X0233041Y0022780D01*
X0232935Y0022891D01*
X0232831Y0023004D01*
X0232731Y0023120D01*
X0232633Y0023238D01*
X0232539Y0023359D01*
X0232448Y0023482D01*
X0232360Y0023608D01*
X0232276Y0023736D01*
X0232194Y0023866D01*
X0232117Y0023998D01*
X0232042Y0024132D01*
X0231971Y0024268D01*
X0231904Y0024406D01*
X0231840Y0024546D01*
X0231780Y0024687D01*
X0231724Y0024829D01*
X0231671Y0024973D01*
X0231622Y0025119D01*
X0231577Y0025265D01*
X0231536Y0025413D01*
X0231499Y0025561D01*
X0231465Y0025711D01*
X0231435Y0025862D01*
X0231410Y0026013D01*
X0231388Y0026164D01*
X0231370Y0026317D01*
X0231356Y0026469D01*
X0231346Y0026622D01*
X0231340Y0026776D01*
X0231338Y0026929D01*
X0293740Y0197992D02*
X0293742Y0198145D01*
X0293748Y0198299D01*
X0293758Y0198452D01*
X0293772Y0198604D01*
X0293790Y0198757D01*
X0293812Y0198908D01*
X0293837Y0199059D01*
X0293867Y0199210D01*
X0293901Y0199360D01*
X0293938Y0199508D01*
X0293979Y0199656D01*
X0294024Y0199802D01*
X0294073Y0199948D01*
X0294126Y0200092D01*
X0294182Y0200234D01*
X0294242Y0200375D01*
X0294306Y0200515D01*
X0294373Y0200653D01*
X0294444Y0200789D01*
X0294519Y0200923D01*
X0294596Y0201055D01*
X0294678Y0201185D01*
X0294762Y0201313D01*
X0294850Y0201439D01*
X0294941Y0201562D01*
X0295035Y0201683D01*
X0295133Y0201801D01*
X0295233Y0201917D01*
X0295337Y0202030D01*
X0295443Y0202141D01*
X0295552Y0202249D01*
X0295664Y0202354D01*
X0295778Y0202455D01*
X0295896Y0202554D01*
X0296015Y0202650D01*
X0296137Y0202743D01*
X0296262Y0202832D01*
X0296389Y0202919D01*
X0296518Y0203001D01*
X0296649Y0203081D01*
X0296782Y0203157D01*
X0296917Y0203230D01*
X0297054Y0203299D01*
X0297193Y0203364D01*
X0297333Y0203426D01*
X0297475Y0203484D01*
X0297618Y0203539D01*
X0297763Y0203590D01*
X0297909Y0203637D01*
X0298056Y0203680D01*
X0298204Y0203719D01*
X0298353Y0203755D01*
X0298503Y0203786D01*
X0298654Y0203814D01*
X0298805Y0203838D01*
X0298958Y0203858D01*
X0299110Y0203874D01*
X0299263Y0203886D01*
X0299416Y0203894D01*
X0299569Y0203898D01*
X0299723Y0203898D01*
X0299876Y0203894D01*
X0300029Y0203886D01*
X0300182Y0203874D01*
X0300334Y0203858D01*
X0300487Y0203838D01*
X0300638Y0203814D01*
X0300789Y0203786D01*
X0300939Y0203755D01*
X0301088Y0203719D01*
X0301236Y0203680D01*
X0301383Y0203637D01*
X0301529Y0203590D01*
X0301674Y0203539D01*
X0301817Y0203484D01*
X0301959Y0203426D01*
X0302099Y0203364D01*
X0302238Y0203299D01*
X0302375Y0203230D01*
X0302510Y0203157D01*
X0302643Y0203081D01*
X0302774Y0203001D01*
X0302903Y0202919D01*
X0303030Y0202832D01*
X0303155Y0202743D01*
X0303277Y0202650D01*
X0303396Y0202554D01*
X0303514Y0202455D01*
X0303628Y0202354D01*
X0303740Y0202249D01*
X0303849Y0202141D01*
X0303955Y0202030D01*
X0304059Y0201917D01*
X0304159Y0201801D01*
X0304257Y0201683D01*
X0304351Y0201562D01*
X0304442Y0201439D01*
X0304530Y0201313D01*
X0304614Y0201185D01*
X0304696Y0201055D01*
X0304773Y0200923D01*
X0304848Y0200789D01*
X0304919Y0200653D01*
X0304986Y0200515D01*
X0305050Y0200375D01*
X0305110Y0200234D01*
X0305166Y0200092D01*
X0305219Y0199948D01*
X0305268Y0199802D01*
X0305313Y0199656D01*
X0305354Y0199508D01*
X0305391Y0199360D01*
X0305425Y0199210D01*
X0305455Y0199059D01*
X0305480Y0198908D01*
X0305502Y0198757D01*
X0305520Y0198604D01*
X0305534Y0198452D01*
X0305544Y0198299D01*
X0305550Y0198145D01*
X0305552Y0197992D01*
X0305550Y0197839D01*
X0305544Y0197685D01*
X0305534Y0197532D01*
X0305520Y0197380D01*
X0305502Y0197227D01*
X0305480Y0197076D01*
X0305455Y0196925D01*
X0305425Y0196774D01*
X0305391Y0196624D01*
X0305354Y0196476D01*
X0305313Y0196328D01*
X0305268Y0196182D01*
X0305219Y0196036D01*
X0305166Y0195892D01*
X0305110Y0195750D01*
X0305050Y0195609D01*
X0304986Y0195469D01*
X0304919Y0195331D01*
X0304848Y0195195D01*
X0304773Y0195061D01*
X0304696Y0194929D01*
X0304614Y0194799D01*
X0304530Y0194671D01*
X0304442Y0194545D01*
X0304351Y0194422D01*
X0304257Y0194301D01*
X0304159Y0194183D01*
X0304059Y0194067D01*
X0303955Y0193954D01*
X0303849Y0193843D01*
X0303740Y0193735D01*
X0303628Y0193630D01*
X0303514Y0193529D01*
X0303396Y0193430D01*
X0303277Y0193334D01*
X0303155Y0193241D01*
X0303030Y0193152D01*
X0302903Y0193065D01*
X0302774Y0192983D01*
X0302643Y0192903D01*
X0302510Y0192827D01*
X0302375Y0192754D01*
X0302238Y0192685D01*
X0302099Y0192620D01*
X0301959Y0192558D01*
X0301817Y0192500D01*
X0301674Y0192445D01*
X0301529Y0192394D01*
X0301383Y0192347D01*
X0301236Y0192304D01*
X0301088Y0192265D01*
X0300939Y0192229D01*
X0300789Y0192198D01*
X0300638Y0192170D01*
X0300487Y0192146D01*
X0300334Y0192126D01*
X0300182Y0192110D01*
X0300029Y0192098D01*
X0299876Y0192090D01*
X0299723Y0192086D01*
X0299569Y0192086D01*
X0299416Y0192090D01*
X0299263Y0192098D01*
X0299110Y0192110D01*
X0298958Y0192126D01*
X0298805Y0192146D01*
X0298654Y0192170D01*
X0298503Y0192198D01*
X0298353Y0192229D01*
X0298204Y0192265D01*
X0298056Y0192304D01*
X0297909Y0192347D01*
X0297763Y0192394D01*
X0297618Y0192445D01*
X0297475Y0192500D01*
X0297333Y0192558D01*
X0297193Y0192620D01*
X0297054Y0192685D01*
X0296917Y0192754D01*
X0296782Y0192827D01*
X0296649Y0192903D01*
X0296518Y0192983D01*
X0296389Y0193065D01*
X0296262Y0193152D01*
X0296137Y0193241D01*
X0296015Y0193334D01*
X0295896Y0193430D01*
X0295778Y0193529D01*
X0295664Y0193630D01*
X0295552Y0193735D01*
X0295443Y0193843D01*
X0295337Y0193954D01*
X0295233Y0194067D01*
X0295133Y0194183D01*
X0295035Y0194301D01*
X0294941Y0194422D01*
X0294850Y0194545D01*
X0294762Y0194671D01*
X0294678Y0194799D01*
X0294596Y0194929D01*
X0294519Y0195061D01*
X0294444Y0195195D01*
X0294373Y0195331D01*
X0294306Y0195469D01*
X0294242Y0195609D01*
X0294182Y0195750D01*
X0294126Y0195892D01*
X0294073Y0196036D01*
X0294024Y0196182D01*
X0293979Y0196328D01*
X0293938Y0196476D01*
X0293901Y0196624D01*
X0293867Y0196774D01*
X0293837Y0196925D01*
X0293812Y0197076D01*
X0293790Y0197227D01*
X0293772Y0197380D01*
X0293758Y0197532D01*
X0293748Y0197685D01*
X0293742Y0197839D01*
X0293740Y0197992D01*
X0037834Y0197992D02*
X0037836Y0198145D01*
X0037842Y0198299D01*
X0037852Y0198452D01*
X0037866Y0198604D01*
X0037884Y0198757D01*
X0037906Y0198908D01*
X0037931Y0199059D01*
X0037961Y0199210D01*
X0037995Y0199360D01*
X0038032Y0199508D01*
X0038073Y0199656D01*
X0038118Y0199802D01*
X0038167Y0199948D01*
X0038220Y0200092D01*
X0038276Y0200234D01*
X0038336Y0200375D01*
X0038400Y0200515D01*
X0038467Y0200653D01*
X0038538Y0200789D01*
X0038613Y0200923D01*
X0038690Y0201055D01*
X0038772Y0201185D01*
X0038856Y0201313D01*
X0038944Y0201439D01*
X0039035Y0201562D01*
X0039129Y0201683D01*
X0039227Y0201801D01*
X0039327Y0201917D01*
X0039431Y0202030D01*
X0039537Y0202141D01*
X0039646Y0202249D01*
X0039758Y0202354D01*
X0039872Y0202455D01*
X0039990Y0202554D01*
X0040109Y0202650D01*
X0040231Y0202743D01*
X0040356Y0202832D01*
X0040483Y0202919D01*
X0040612Y0203001D01*
X0040743Y0203081D01*
X0040876Y0203157D01*
X0041011Y0203230D01*
X0041148Y0203299D01*
X0041287Y0203364D01*
X0041427Y0203426D01*
X0041569Y0203484D01*
X0041712Y0203539D01*
X0041857Y0203590D01*
X0042003Y0203637D01*
X0042150Y0203680D01*
X0042298Y0203719D01*
X0042447Y0203755D01*
X0042597Y0203786D01*
X0042748Y0203814D01*
X0042899Y0203838D01*
X0043052Y0203858D01*
X0043204Y0203874D01*
X0043357Y0203886D01*
X0043510Y0203894D01*
X0043663Y0203898D01*
X0043817Y0203898D01*
X0043970Y0203894D01*
X0044123Y0203886D01*
X0044276Y0203874D01*
X0044428Y0203858D01*
X0044581Y0203838D01*
X0044732Y0203814D01*
X0044883Y0203786D01*
X0045033Y0203755D01*
X0045182Y0203719D01*
X0045330Y0203680D01*
X0045477Y0203637D01*
X0045623Y0203590D01*
X0045768Y0203539D01*
X0045911Y0203484D01*
X0046053Y0203426D01*
X0046193Y0203364D01*
X0046332Y0203299D01*
X0046469Y0203230D01*
X0046604Y0203157D01*
X0046737Y0203081D01*
X0046868Y0203001D01*
X0046997Y0202919D01*
X0047124Y0202832D01*
X0047249Y0202743D01*
X0047371Y0202650D01*
X0047490Y0202554D01*
X0047608Y0202455D01*
X0047722Y0202354D01*
X0047834Y0202249D01*
X0047943Y0202141D01*
X0048049Y0202030D01*
X0048153Y0201917D01*
X0048253Y0201801D01*
X0048351Y0201683D01*
X0048445Y0201562D01*
X0048536Y0201439D01*
X0048624Y0201313D01*
X0048708Y0201185D01*
X0048790Y0201055D01*
X0048867Y0200923D01*
X0048942Y0200789D01*
X0049013Y0200653D01*
X0049080Y0200515D01*
X0049144Y0200375D01*
X0049204Y0200234D01*
X0049260Y0200092D01*
X0049313Y0199948D01*
X0049362Y0199802D01*
X0049407Y0199656D01*
X0049448Y0199508D01*
X0049485Y0199360D01*
X0049519Y0199210D01*
X0049549Y0199059D01*
X0049574Y0198908D01*
X0049596Y0198757D01*
X0049614Y0198604D01*
X0049628Y0198452D01*
X0049638Y0198299D01*
X0049644Y0198145D01*
X0049646Y0197992D01*
X0049644Y0197839D01*
X0049638Y0197685D01*
X0049628Y0197532D01*
X0049614Y0197380D01*
X0049596Y0197227D01*
X0049574Y0197076D01*
X0049549Y0196925D01*
X0049519Y0196774D01*
X0049485Y0196624D01*
X0049448Y0196476D01*
X0049407Y0196328D01*
X0049362Y0196182D01*
X0049313Y0196036D01*
X0049260Y0195892D01*
X0049204Y0195750D01*
X0049144Y0195609D01*
X0049080Y0195469D01*
X0049013Y0195331D01*
X0048942Y0195195D01*
X0048867Y0195061D01*
X0048790Y0194929D01*
X0048708Y0194799D01*
X0048624Y0194671D01*
X0048536Y0194545D01*
X0048445Y0194422D01*
X0048351Y0194301D01*
X0048253Y0194183D01*
X0048153Y0194067D01*
X0048049Y0193954D01*
X0047943Y0193843D01*
X0047834Y0193735D01*
X0047722Y0193630D01*
X0047608Y0193529D01*
X0047490Y0193430D01*
X0047371Y0193334D01*
X0047249Y0193241D01*
X0047124Y0193152D01*
X0046997Y0193065D01*
X0046868Y0192983D01*
X0046737Y0192903D01*
X0046604Y0192827D01*
X0046469Y0192754D01*
X0046332Y0192685D01*
X0046193Y0192620D01*
X0046053Y0192558D01*
X0045911Y0192500D01*
X0045768Y0192445D01*
X0045623Y0192394D01*
X0045477Y0192347D01*
X0045330Y0192304D01*
X0045182Y0192265D01*
X0045033Y0192229D01*
X0044883Y0192198D01*
X0044732Y0192170D01*
X0044581Y0192146D01*
X0044428Y0192126D01*
X0044276Y0192110D01*
X0044123Y0192098D01*
X0043970Y0192090D01*
X0043817Y0192086D01*
X0043663Y0192086D01*
X0043510Y0192090D01*
X0043357Y0192098D01*
X0043204Y0192110D01*
X0043052Y0192126D01*
X0042899Y0192146D01*
X0042748Y0192170D01*
X0042597Y0192198D01*
X0042447Y0192229D01*
X0042298Y0192265D01*
X0042150Y0192304D01*
X0042003Y0192347D01*
X0041857Y0192394D01*
X0041712Y0192445D01*
X0041569Y0192500D01*
X0041427Y0192558D01*
X0041287Y0192620D01*
X0041148Y0192685D01*
X0041011Y0192754D01*
X0040876Y0192827D01*
X0040743Y0192903D01*
X0040612Y0192983D01*
X0040483Y0193065D01*
X0040356Y0193152D01*
X0040231Y0193241D01*
X0040109Y0193334D01*
X0039990Y0193430D01*
X0039872Y0193529D01*
X0039758Y0193630D01*
X0039646Y0193735D01*
X0039537Y0193843D01*
X0039431Y0193954D01*
X0039327Y0194067D01*
X0039227Y0194183D01*
X0039129Y0194301D01*
X0039035Y0194422D01*
X0038944Y0194545D01*
X0038856Y0194671D01*
X0038772Y0194799D01*
X0038690Y0194929D01*
X0038613Y0195061D01*
X0038538Y0195195D01*
X0038467Y0195331D01*
X0038400Y0195469D01*
X0038336Y0195609D01*
X0038276Y0195750D01*
X0038220Y0195892D01*
X0038167Y0196036D01*
X0038118Y0196182D01*
X0038073Y0196328D01*
X0038032Y0196476D01*
X0037995Y0196624D01*
X0037961Y0196774D01*
X0037931Y0196925D01*
X0037906Y0197076D01*
X0037884Y0197227D01*
X0037866Y0197380D01*
X0037852Y0197532D01*
X0037842Y0197685D01*
X0037836Y0197839D01*
X0037834Y0197992D01*
D15*
X0299518Y0005605D02*
X0300089Y0008428D01*
X0300089Y0008427D02*
X0300657Y0008323D01*
X0301228Y0008233D01*
X0301801Y0008157D01*
X0302375Y0008095D01*
X0302951Y0008047D01*
X0303528Y0008012D01*
X0304105Y0007992D01*
X0304683Y0007986D01*
X0305261Y0007994D01*
X0305838Y0008016D01*
X0306415Y0008052D01*
X0306990Y0008102D01*
X0307565Y0008166D01*
X0308137Y0008244D01*
X0308708Y0008336D01*
X0309276Y0008442D01*
X0309841Y0008561D01*
X0310403Y0008694D01*
X0310962Y0008841D01*
X0311517Y0009002D01*
X0312068Y0009176D01*
X0312615Y0009363D01*
X0313157Y0009563D01*
X0313693Y0009777D01*
X0314225Y0010004D01*
X0314751Y0010243D01*
X0315271Y0010495D01*
X0315784Y0010760D01*
X0316291Y0011037D01*
X0316791Y0011327D01*
X0317284Y0011628D01*
X0317769Y0011942D01*
X0318247Y0012267D01*
X0318717Y0012604D01*
X0319178Y0012952D01*
X0319630Y0013311D01*
X0320074Y0013681D01*
X0320509Y0014062D01*
X0320934Y0014453D01*
X0321350Y0014854D01*
X0321755Y0015266D01*
X0322151Y0015687D01*
X0322536Y0016117D01*
X0322911Y0016557D01*
X0323275Y0017006D01*
X0323627Y0017464D01*
X0323969Y0017930D01*
X0324299Y0018404D01*
X0324617Y0018886D01*
X0324924Y0019376D01*
X0325219Y0019873D01*
X0325501Y0020377D01*
X0325771Y0020888D01*
X0326029Y0021405D01*
X0326274Y0021928D01*
X0326506Y0022458D01*
X0326725Y0022992D01*
X0326931Y0023532D01*
X0327124Y0024077D01*
X0327304Y0024626D01*
X0327470Y0025179D01*
X0327623Y0025736D01*
X0327762Y0026297D01*
X0327887Y0026861D01*
X0330709Y0026290D01*
X0330710Y0026289D01*
X0330570Y0025656D01*
X0330414Y0025027D01*
X0330243Y0024401D01*
X0330057Y0023780D01*
X0329856Y0023164D01*
X0329639Y0022552D01*
X0329409Y0021946D01*
X0329163Y0021346D01*
X0328903Y0020752D01*
X0328628Y0020165D01*
X0328339Y0019584D01*
X0328036Y0019011D01*
X0327720Y0018445D01*
X0327389Y0017887D01*
X0327045Y0017337D01*
X0326688Y0016796D01*
X0326318Y0016263D01*
X0325935Y0015740D01*
X0325539Y0015226D01*
X0325131Y0014723D01*
X0324710Y0014229D01*
X0324278Y0013745D01*
X0323834Y0013272D01*
X0323379Y0012811D01*
X0322913Y0012360D01*
X0322435Y0011921D01*
X0321948Y0011494D01*
X0321450Y0011078D01*
X0320942Y0010675D01*
X0320424Y0010285D01*
X0319897Y0009907D01*
X0319361Y0009542D01*
X0318816Y0009190D01*
X0318263Y0008851D01*
X0317702Y0008527D01*
X0317133Y0008216D01*
X0316556Y0007918D01*
X0315973Y0007635D01*
X0315383Y0007367D01*
X0314786Y0007112D01*
X0314184Y0006873D01*
X0313575Y0006648D01*
X0312962Y0006438D01*
X0312343Y0006243D01*
X0311720Y0006063D01*
X0311093Y0005898D01*
X0310462Y0005749D01*
X0309828Y0005615D01*
X0309190Y0005497D01*
X0308550Y0005394D01*
X0307907Y0005306D01*
X0307263Y0005235D01*
X0306617Y0005179D01*
X0305969Y0005139D01*
X0305321Y0005115D01*
X0304673Y0005106D01*
X0304024Y0005113D01*
X0303376Y0005136D01*
X0302729Y0005175D01*
X0302083Y0005230D01*
X0301438Y0005300D01*
X0300795Y0005386D01*
X0300155Y0005487D01*
X0299517Y0005605D01*
X0299577Y0005902D01*
X0300208Y0005786D01*
X0300841Y0005685D01*
X0301476Y0005601D01*
X0302114Y0005531D01*
X0302752Y0005477D01*
X0303392Y0005439D01*
X0304033Y0005416D01*
X0304674Y0005409D01*
X0305315Y0005418D01*
X0305955Y0005442D01*
X0306595Y0005481D01*
X0307234Y0005537D01*
X0307871Y0005607D01*
X0308506Y0005694D01*
X0309139Y0005795D01*
X0309770Y0005912D01*
X0310397Y0006045D01*
X0311021Y0006193D01*
X0311641Y0006355D01*
X0312256Y0006533D01*
X0312868Y0006726D01*
X0313474Y0006934D01*
X0314076Y0007156D01*
X0314671Y0007393D01*
X0315261Y0007644D01*
X0315844Y0007910D01*
X0316421Y0008190D01*
X0316991Y0008483D01*
X0317553Y0008791D01*
X0318108Y0009112D01*
X0318655Y0009446D01*
X0319194Y0009794D01*
X0319724Y0010155D01*
X0320244Y0010529D01*
X0320756Y0010915D01*
X0321258Y0011313D01*
X0321751Y0011724D01*
X0322233Y0012146D01*
X0322705Y0012580D01*
X0323166Y0013026D01*
X0323616Y0013482D01*
X0324054Y0013950D01*
X0324482Y0014427D01*
X0324897Y0014916D01*
X0325301Y0015414D01*
X0325692Y0015922D01*
X0326071Y0016439D01*
X0326437Y0016965D01*
X0326790Y0017500D01*
X0327130Y0018043D01*
X0327457Y0018595D01*
X0327770Y0019154D01*
X0328069Y0019721D01*
X0328355Y0020295D01*
X0328626Y0020876D01*
X0328883Y0021463D01*
X0329126Y0022056D01*
X0329355Y0022655D01*
X0329568Y0023260D01*
X0329767Y0023869D01*
X0329951Y0024483D01*
X0330120Y0025101D01*
X0330274Y0025724D01*
X0330413Y0026350D01*
X0330116Y0026410D01*
X0329979Y0025791D01*
X0329827Y0025176D01*
X0329659Y0024565D01*
X0329478Y0023958D01*
X0329281Y0023356D01*
X0329070Y0022758D01*
X0328844Y0022166D01*
X0328604Y0021580D01*
X0328350Y0021000D01*
X0328081Y0020426D01*
X0327799Y0019858D01*
X0327503Y0019298D01*
X0327193Y0018745D01*
X0326870Y0018200D01*
X0326534Y0017663D01*
X0326185Y0017134D01*
X0325824Y0016614D01*
X0325449Y0016103D01*
X0325062Y0015601D01*
X0324664Y0015109D01*
X0324253Y0014626D01*
X0323831Y0014154D01*
X0323397Y0013692D01*
X0322952Y0013241D01*
X0322496Y0012800D01*
X0322030Y0012371D01*
X0321554Y0011954D01*
X0321067Y0011548D01*
X0320571Y0011154D01*
X0320065Y0010773D01*
X0319550Y0010403D01*
X0319026Y0010047D01*
X0318494Y0009703D01*
X0317953Y0009372D01*
X0317405Y0009055D01*
X0316849Y0008751D01*
X0316286Y0008461D01*
X0315716Y0008184D01*
X0315139Y0007922D01*
X0314556Y0007673D01*
X0313968Y0007439D01*
X0313373Y0007219D01*
X0312774Y0007014D01*
X0312170Y0006823D01*
X0311561Y0006648D01*
X0310948Y0006487D01*
X0310331Y0006341D01*
X0309711Y0006210D01*
X0309088Y0006094D01*
X0308463Y0005993D01*
X0307835Y0005908D01*
X0307205Y0005838D01*
X0306574Y0005784D01*
X0305942Y0005744D01*
X0305309Y0005720D01*
X0304675Y0005712D01*
X0304041Y0005719D01*
X0303408Y0005741D01*
X0302776Y0005779D01*
X0302144Y0005833D01*
X0301514Y0005901D01*
X0300886Y0005985D01*
X0300261Y0006084D01*
X0299637Y0006199D01*
X0299698Y0006496D01*
X0300313Y0006383D01*
X0300932Y0006285D01*
X0301553Y0006202D01*
X0302175Y0006134D01*
X0302799Y0006081D01*
X0303424Y0006044D01*
X0304050Y0006022D01*
X0304676Y0006015D01*
X0305302Y0006023D01*
X0305928Y0006047D01*
X0306553Y0006086D01*
X0307177Y0006140D01*
X0307799Y0006209D01*
X0308419Y0006293D01*
X0309038Y0006393D01*
X0309653Y0006507D01*
X0310266Y0006637D01*
X0310875Y0006781D01*
X0311481Y0006940D01*
X0312083Y0007114D01*
X0312680Y0007302D01*
X0313272Y0007505D01*
X0313859Y0007722D01*
X0314441Y0007954D01*
X0315017Y0008199D01*
X0315587Y0008459D01*
X0316151Y0008732D01*
X0316707Y0009019D01*
X0317257Y0009319D01*
X0317799Y0009633D01*
X0318333Y0009960D01*
X0318859Y0010299D01*
X0319376Y0010652D01*
X0319885Y0011017D01*
X0320385Y0011394D01*
X0320876Y0011783D01*
X0321356Y0012184D01*
X0321827Y0012597D01*
X0322288Y0013021D01*
X0322739Y0013456D01*
X0323178Y0013902D01*
X0323607Y0014358D01*
X0324024Y0014825D01*
X0324430Y0015302D01*
X0324824Y0015788D01*
X0325206Y0016284D01*
X0325576Y0016789D01*
X0325934Y0017303D01*
X0326279Y0017826D01*
X0326611Y0018357D01*
X0326930Y0018896D01*
X0327236Y0019442D01*
X0327529Y0019996D01*
X0327808Y0020556D01*
X0328073Y0021123D01*
X0328324Y0021697D01*
X0328562Y0022276D01*
X0328785Y0022861D01*
X0328994Y0023452D01*
X0329188Y0024047D01*
X0329368Y0024647D01*
X0329533Y0025251D01*
X0329683Y0025859D01*
X0329819Y0026470D01*
X0329522Y0026530D01*
X0329388Y0025926D01*
X0329239Y0025325D01*
X0329076Y0024729D01*
X0328898Y0024136D01*
X0328706Y0023548D01*
X0328500Y0022964D01*
X0328279Y0022386D01*
X0328045Y0021814D01*
X0327796Y0021247D01*
X0327534Y0020687D01*
X0327259Y0020133D01*
X0326969Y0019586D01*
X0326667Y0019046D01*
X0326352Y0018513D01*
X0326024Y0017989D01*
X0325683Y0017473D01*
X0325329Y0016965D01*
X0324964Y0016466D01*
X0324586Y0015975D01*
X0324196Y0015495D01*
X0323795Y0015024D01*
X0323383Y0014562D01*
X0322959Y0014111D01*
X0322525Y0013671D01*
X0322080Y0013241D01*
X0321625Y0012822D01*
X0321159Y0012414D01*
X0320684Y0012018D01*
X0320199Y0011633D01*
X0319706Y0011261D01*
X0319203Y0010900D01*
X0318691Y0010552D01*
X0318171Y0010216D01*
X0317644Y0009893D01*
X0317108Y0009583D01*
X0316565Y0009286D01*
X0316015Y0009003D01*
X0315459Y0008733D01*
X0314895Y0008476D01*
X0314326Y0008234D01*
X0313751Y0008005D01*
X0313171Y0007791D01*
X0312586Y0007590D01*
X0311996Y0007404D01*
X0311401Y0007232D01*
X0310803Y0007075D01*
X0310201Y0006932D01*
X0309595Y0006805D01*
X0308987Y0006691D01*
X0308376Y0006593D01*
X0307763Y0006510D01*
X0307148Y0006441D01*
X0306532Y0006388D01*
X0305914Y0006350D01*
X0305296Y0006326D01*
X0304677Y0006318D01*
X0304058Y0006325D01*
X0303440Y0006347D01*
X0302822Y0006384D01*
X0302206Y0006435D01*
X0301591Y0006502D01*
X0300977Y0006584D01*
X0300366Y0006681D01*
X0299758Y0006793D01*
X0299818Y0007090D01*
X0300419Y0006979D01*
X0301023Y0006884D01*
X0301629Y0006803D01*
X0302237Y0006737D01*
X0302846Y0006686D01*
X0303456Y0006649D01*
X0304067Y0006628D01*
X0304678Y0006621D01*
X0305289Y0006629D01*
X0305900Y0006652D01*
X0306510Y0006690D01*
X0307119Y0006743D01*
X0307727Y0006811D01*
X0308333Y0006893D01*
X0308936Y0006990D01*
X0309537Y0007102D01*
X0310135Y0007228D01*
X0310730Y0007369D01*
X0311321Y0007525D01*
X0311909Y0007694D01*
X0312492Y0007878D01*
X0313070Y0008076D01*
X0313643Y0008288D01*
X0314211Y0008514D01*
X0314774Y0008754D01*
X0315330Y0009007D01*
X0315880Y0009274D01*
X0316423Y0009554D01*
X0316960Y0009847D01*
X0317489Y0010154D01*
X0318010Y0010473D01*
X0318524Y0010804D01*
X0319029Y0011148D01*
X0319526Y0011505D01*
X0320014Y0011873D01*
X0320493Y0012253D01*
X0320962Y0012644D01*
X0321422Y0013047D01*
X0321872Y0013461D01*
X0322312Y0013886D01*
X0322741Y0014321D01*
X0323159Y0014767D01*
X0323567Y0015222D01*
X0323963Y0015688D01*
X0324348Y0016163D01*
X0324721Y0016647D01*
X0325082Y0017140D01*
X0325431Y0017642D01*
X0325768Y0018152D01*
X0326092Y0018670D01*
X0326404Y0019196D01*
X0326703Y0019729D01*
X0326988Y0020270D01*
X0327261Y0020817D01*
X0327520Y0021371D01*
X0327765Y0021931D01*
X0327997Y0022496D01*
X0328215Y0023068D01*
X0328419Y0023644D01*
X0328609Y0024225D01*
X0328784Y0024810D01*
X0328946Y0025400D01*
X0329093Y0025993D01*
X0329225Y0026590D01*
X0328928Y0026650D01*
X0328797Y0026061D01*
X0328652Y0025475D01*
X0328492Y0024892D01*
X0328319Y0024314D01*
X0328131Y0023740D01*
X0327930Y0023171D01*
X0327715Y0022606D01*
X0327486Y0022048D01*
X0327243Y0021495D01*
X0326987Y0020948D01*
X0326718Y0020407D01*
X0326436Y0019873D01*
X0326141Y0019346D01*
X0325833Y0018827D01*
X0325513Y0018315D01*
X0325180Y0017811D01*
X0324835Y0017315D01*
X0324478Y0016828D01*
X0324110Y0016350D01*
X0323729Y0015881D01*
X0323338Y0015421D01*
X0322935Y0014971D01*
X0322522Y0014531D01*
X0322098Y0014101D01*
X0321664Y0013681D01*
X0321219Y0013272D01*
X0320765Y0012874D01*
X0320301Y0012488D01*
X0319828Y0012112D01*
X0319346Y0011749D01*
X0318856Y0011397D01*
X0318356Y0011057D01*
X0317849Y0010729D01*
X0317334Y0010414D01*
X0316811Y0010112D01*
X0316281Y0009822D01*
X0315745Y0009545D01*
X0315201Y0009282D01*
X0314652Y0009031D01*
X0314096Y0008795D01*
X0313535Y0008571D01*
X0312969Y0008362D01*
X0312398Y0008166D01*
X0311822Y0007984D01*
X0311242Y0007817D01*
X0310658Y0007663D01*
X0310070Y0007524D01*
X0309479Y0007399D01*
X0308885Y0007289D01*
X0308289Y0007193D01*
X0307691Y0007112D01*
X0307091Y0007045D01*
X0306489Y0006993D01*
X0305886Y0006955D01*
X0305283Y0006932D01*
X0304679Y0006924D01*
X0304075Y0006931D01*
X0303472Y0006952D01*
X0302869Y0006988D01*
X0302267Y0007038D01*
X0301667Y0007104D01*
X0301068Y0007183D01*
X0300472Y0007278D01*
X0299878Y0007387D01*
X0299938Y0007683D01*
X0300525Y0007576D01*
X0301114Y0007483D01*
X0301705Y0007404D01*
X0302298Y0007340D01*
X0302892Y0007290D01*
X0303488Y0007254D01*
X0304084Y0007233D01*
X0304680Y0007227D01*
X0305277Y0007235D01*
X0305873Y0007258D01*
X0306468Y0007295D01*
X0307062Y0007346D01*
X0307655Y0007412D01*
X0308246Y0007493D01*
X0308835Y0007588D01*
X0309421Y0007697D01*
X0310005Y0007820D01*
X0310585Y0007958D01*
X0311162Y0008109D01*
X0311735Y0008275D01*
X0312304Y0008454D01*
X0312868Y0008647D01*
X0313427Y0008854D01*
X0313981Y0009075D01*
X0314530Y0009309D01*
X0315073Y0009556D01*
X0315609Y0009816D01*
X0316140Y0010090D01*
X0316663Y0010376D01*
X0317179Y0010675D01*
X0317688Y0010986D01*
X0318189Y0011309D01*
X0318682Y0011645D01*
X0319167Y0011993D01*
X0319643Y0012352D01*
X0320110Y0012722D01*
X0320568Y0013104D01*
X0321017Y0013497D01*
X0321456Y0013901D01*
X0321885Y0014316D01*
X0322303Y0014740D01*
X0322712Y0015175D01*
X0323109Y0015620D01*
X0323496Y0016074D01*
X0323871Y0016537D01*
X0324235Y0017010D01*
X0324588Y0017491D01*
X0324929Y0017980D01*
X0325257Y0018478D01*
X0325574Y0018984D01*
X0325878Y0019497D01*
X0326169Y0020017D01*
X0326448Y0020544D01*
X0326714Y0021078D01*
X0326967Y0021618D01*
X0327206Y0022165D01*
X0327432Y0022716D01*
X0327645Y0023274D01*
X0327844Y0023836D01*
X0328029Y0024403D01*
X0328201Y0024974D01*
X0328358Y0025549D01*
X0328502Y0026128D01*
X0328631Y0026711D01*
X0328334Y0026771D01*
X0328206Y0026196D01*
X0328065Y0025624D01*
X0327909Y0025056D01*
X0327740Y0024492D01*
X0327557Y0023932D01*
X0327360Y0023377D01*
X0327150Y0022827D01*
X0326927Y0022282D01*
X0326690Y0021742D01*
X0326440Y0021209D01*
X0326178Y0020681D01*
X0325903Y0020161D01*
X0325615Y0019647D01*
X0325314Y0019140D01*
X0325002Y0018641D01*
X0324677Y0018149D01*
X0324341Y0017666D01*
X0323993Y0017191D01*
X0323633Y0016724D01*
X0323262Y0016267D01*
X0322880Y0015818D01*
X0322488Y0015379D01*
X0322085Y0014950D01*
X0321671Y0014531D01*
X0321247Y0014121D01*
X0320814Y0013723D01*
X0320371Y0013335D01*
X0319919Y0012957D01*
X0319457Y0012591D01*
X0318987Y0012237D01*
X0318508Y0011893D01*
X0318021Y0011562D01*
X0317527Y0011242D01*
X0317024Y0010935D01*
X0316514Y0010640D01*
X0315998Y0010357D01*
X0315474Y0010087D01*
X0314944Y0009830D01*
X0314408Y0009586D01*
X0313866Y0009355D01*
X0313319Y0009137D01*
X0312767Y0008933D01*
X0312210Y0008742D01*
X0311648Y0008565D01*
X0311082Y0008401D01*
X0310512Y0008252D01*
X0309939Y0008116D01*
X0309363Y0007994D01*
X0308784Y0007886D01*
X0308202Y0007793D01*
X0307619Y0007713D01*
X0307033Y0007648D01*
X0306447Y0007597D01*
X0305859Y0007560D01*
X0305270Y0007538D01*
X0304681Y0007530D01*
X0304092Y0007536D01*
X0303504Y0007557D01*
X0302916Y0007592D01*
X0302329Y0007641D01*
X0301743Y0007705D01*
X0301159Y0007782D01*
X0300578Y0007874D01*
X0299998Y0007980D01*
X0300058Y0008277D01*
X0300631Y0008173D01*
X0301205Y0008082D01*
X0301781Y0008005D01*
X0302360Y0007943D01*
X0302939Y0007894D01*
X0303520Y0007860D01*
X0304101Y0007839D01*
X0304682Y0007833D01*
X0305264Y0007841D01*
X0305845Y0007863D01*
X0306425Y0007899D01*
X0307005Y0007950D01*
X0307583Y0008014D01*
X0308159Y0008093D01*
X0308733Y0008185D01*
X0309305Y0008292D01*
X0309874Y0008412D01*
X0310440Y0008546D01*
X0311002Y0008694D01*
X0311561Y0008855D01*
X0312116Y0009030D01*
X0312666Y0009219D01*
X0313211Y0009421D01*
X0313751Y0009636D01*
X0314286Y0009864D01*
X0314816Y0010105D01*
X0315339Y0010359D01*
X0315856Y0010625D01*
X0316366Y0010904D01*
X0316869Y0011195D01*
X0317365Y0011499D01*
X0317854Y0011814D01*
X0318335Y0012142D01*
X0318807Y0012481D01*
X0319272Y0012831D01*
X0319727Y0013192D01*
X0320174Y0013565D01*
X0320611Y0013948D01*
X0321039Y0014342D01*
X0321458Y0014746D01*
X0321866Y0015160D01*
X0322264Y0015584D01*
X0322652Y0016017D01*
X0323029Y0016460D01*
X0323395Y0016912D01*
X0323750Y0017372D01*
X0324094Y0017841D01*
X0324426Y0018319D01*
X0324746Y0018804D01*
X0325055Y0019297D01*
X0325352Y0019797D01*
X0325636Y0020304D01*
X0325908Y0020819D01*
X0326167Y0021339D01*
X0326413Y0021866D01*
X0326647Y0022398D01*
X0326868Y0022937D01*
X0327075Y0023480D01*
X0327269Y0024028D01*
X0327450Y0024581D01*
X0327617Y0025138D01*
X0327771Y0025699D01*
X0327911Y0026263D01*
X0328037Y0026831D01*
X0330770Y0198151D02*
X0327890Y0198151D01*
X0327890Y0198152D02*
X0327881Y0198595D01*
X0327861Y0199037D01*
X0327830Y0199479D01*
X0327789Y0199920D01*
X0327737Y0200359D01*
X0327674Y0200798D01*
X0327601Y0201234D01*
X0327517Y0201669D01*
X0327422Y0202102D01*
X0327317Y0202532D01*
X0327202Y0202959D01*
X0327076Y0203384D01*
X0326940Y0203805D01*
X0326794Y0204223D01*
X0326638Y0204638D01*
X0326471Y0205048D01*
X0326295Y0205454D01*
X0326109Y0205856D01*
X0325914Y0206253D01*
X0325708Y0206646D01*
X0325494Y0207033D01*
X0325269Y0207415D01*
X0325036Y0207791D01*
X0324794Y0208162D01*
X0324543Y0208526D01*
X0324283Y0208885D01*
X0324014Y0209237D01*
X0323737Y0209582D01*
X0323451Y0209920D01*
X0323158Y0210252D01*
X0322856Y0210576D01*
X0322547Y0210893D01*
X0322230Y0211202D01*
X0321906Y0211504D01*
X0321574Y0211797D01*
X0321236Y0212083D01*
X0320891Y0212360D01*
X0320539Y0212629D01*
X0320180Y0212889D01*
X0319816Y0213140D01*
X0319445Y0213382D01*
X0319069Y0213615D01*
X0318687Y0213840D01*
X0318300Y0214054D01*
X0317907Y0214260D01*
X0317510Y0214455D01*
X0317108Y0214641D01*
X0316702Y0214817D01*
X0316292Y0214984D01*
X0315877Y0215140D01*
X0315459Y0215286D01*
X0315038Y0215422D01*
X0314613Y0215548D01*
X0314186Y0215663D01*
X0313756Y0215768D01*
X0313323Y0215863D01*
X0312888Y0215947D01*
X0312452Y0216020D01*
X0312013Y0216083D01*
X0311574Y0216135D01*
X0311133Y0216176D01*
X0310691Y0216207D01*
X0310249Y0216227D01*
X0309806Y0216236D01*
X0309805Y0219116D01*
X0309806Y0219116D01*
X0310319Y0219106D01*
X0310832Y0219084D01*
X0311345Y0219049D01*
X0311856Y0219001D01*
X0312366Y0218941D01*
X0312874Y0218869D01*
X0313381Y0218784D01*
X0313885Y0218687D01*
X0314387Y0218578D01*
X0314886Y0218457D01*
X0315381Y0218324D01*
X0315874Y0218178D01*
X0316363Y0218021D01*
X0316847Y0217852D01*
X0317328Y0217671D01*
X0317804Y0217478D01*
X0318275Y0217274D01*
X0318741Y0217059D01*
X0319202Y0216832D01*
X0319657Y0216594D01*
X0320106Y0216345D01*
X0320549Y0216086D01*
X0320986Y0215815D01*
X0321416Y0215535D01*
X0321839Y0215243D01*
X0322254Y0214942D01*
X0322662Y0214630D01*
X0323063Y0214309D01*
X0323456Y0213978D01*
X0323840Y0213638D01*
X0324216Y0213288D01*
X0324584Y0212930D01*
X0324942Y0212562D01*
X0325292Y0212186D01*
X0325632Y0211802D01*
X0325963Y0211409D01*
X0326284Y0211008D01*
X0326596Y0210600D01*
X0326897Y0210185D01*
X0327189Y0209762D01*
X0327469Y0209332D01*
X0327740Y0208895D01*
X0327999Y0208452D01*
X0328248Y0208003D01*
X0328486Y0207548D01*
X0328713Y0207087D01*
X0328928Y0206621D01*
X0329132Y0206150D01*
X0329325Y0205674D01*
X0329506Y0205193D01*
X0329675Y0204709D01*
X0329832Y0204220D01*
X0329978Y0203727D01*
X0330111Y0203232D01*
X0330232Y0202733D01*
X0330341Y0202231D01*
X0330438Y0201727D01*
X0330523Y0201220D01*
X0330595Y0200712D01*
X0330655Y0200202D01*
X0330703Y0199691D01*
X0330738Y0199178D01*
X0330760Y0198665D01*
X0330770Y0198152D01*
X0330467Y0198152D01*
X0330457Y0198658D01*
X0330435Y0199163D01*
X0330400Y0199668D01*
X0330354Y0200172D01*
X0330294Y0200675D01*
X0330223Y0201176D01*
X0330140Y0201675D01*
X0330044Y0202172D01*
X0329937Y0202666D01*
X0329817Y0203158D01*
X0329685Y0203647D01*
X0329542Y0204132D01*
X0329387Y0204614D01*
X0329220Y0205091D01*
X0329042Y0205565D01*
X0328852Y0206034D01*
X0328651Y0206498D01*
X0328439Y0206958D01*
X0328215Y0207412D01*
X0327981Y0207860D01*
X0327736Y0208303D01*
X0327480Y0208740D01*
X0327213Y0209170D01*
X0326937Y0209593D01*
X0326650Y0210010D01*
X0326352Y0210420D01*
X0326046Y0210822D01*
X0325729Y0211217D01*
X0325403Y0211604D01*
X0325067Y0211983D01*
X0324723Y0212353D01*
X0324369Y0212715D01*
X0324007Y0213069D01*
X0323637Y0213413D01*
X0323258Y0213749D01*
X0322871Y0214075D01*
X0322476Y0214392D01*
X0322074Y0214698D01*
X0321664Y0214996D01*
X0321247Y0215283D01*
X0320824Y0215559D01*
X0320394Y0215826D01*
X0319957Y0216082D01*
X0319514Y0216327D01*
X0319066Y0216561D01*
X0318612Y0216785D01*
X0318152Y0216997D01*
X0317688Y0217198D01*
X0317219Y0217388D01*
X0316745Y0217566D01*
X0316268Y0217733D01*
X0315786Y0217888D01*
X0315301Y0218031D01*
X0314812Y0218163D01*
X0314320Y0218283D01*
X0313826Y0218390D01*
X0313329Y0218486D01*
X0312830Y0218569D01*
X0312329Y0218640D01*
X0311826Y0218700D01*
X0311322Y0218746D01*
X0310817Y0218781D01*
X0310312Y0218803D01*
X0309806Y0218813D01*
X0309806Y0218510D01*
X0310304Y0218500D01*
X0310803Y0218478D01*
X0311300Y0218444D01*
X0311796Y0218398D01*
X0312292Y0218340D01*
X0312785Y0218269D01*
X0313277Y0218187D01*
X0313767Y0218093D01*
X0314254Y0217987D01*
X0314738Y0217869D01*
X0315220Y0217739D01*
X0315698Y0217598D01*
X0316173Y0217445D01*
X0316643Y0217281D01*
X0317110Y0217105D01*
X0317572Y0216918D01*
X0318030Y0216720D01*
X0318482Y0216511D01*
X0318930Y0216291D01*
X0319371Y0216060D01*
X0319808Y0215818D01*
X0320238Y0215566D01*
X0320662Y0215303D01*
X0321079Y0215031D01*
X0321490Y0214748D01*
X0321893Y0214455D01*
X0322290Y0214153D01*
X0322679Y0213841D01*
X0323060Y0213519D01*
X0323433Y0213189D01*
X0323798Y0212849D01*
X0324155Y0212501D01*
X0324503Y0212144D01*
X0324843Y0211779D01*
X0325173Y0211406D01*
X0325495Y0211025D01*
X0325807Y0210636D01*
X0326109Y0210239D01*
X0326402Y0209836D01*
X0326685Y0209425D01*
X0326957Y0209008D01*
X0327220Y0208584D01*
X0327472Y0208154D01*
X0327714Y0207717D01*
X0327945Y0207276D01*
X0328165Y0206828D01*
X0328374Y0206376D01*
X0328572Y0205918D01*
X0328759Y0205456D01*
X0328935Y0204989D01*
X0329099Y0204519D01*
X0329252Y0204044D01*
X0329393Y0203566D01*
X0329523Y0203084D01*
X0329641Y0202600D01*
X0329747Y0202113D01*
X0329841Y0201623D01*
X0329923Y0201131D01*
X0329994Y0200638D01*
X0330052Y0200142D01*
X0330098Y0199646D01*
X0330132Y0199149D01*
X0330154Y0198650D01*
X0330164Y0198152D01*
X0329861Y0198152D01*
X0329852Y0198643D01*
X0329830Y0199134D01*
X0329796Y0199624D01*
X0329750Y0200113D01*
X0329693Y0200601D01*
X0329624Y0201087D01*
X0329543Y0201571D01*
X0329450Y0202054D01*
X0329345Y0202533D01*
X0329229Y0203011D01*
X0329101Y0203485D01*
X0328962Y0203956D01*
X0328812Y0204424D01*
X0328650Y0204887D01*
X0328477Y0205347D01*
X0328292Y0205802D01*
X0328097Y0206253D01*
X0327891Y0206699D01*
X0327674Y0207139D01*
X0327447Y0207575D01*
X0327209Y0208004D01*
X0326960Y0208428D01*
X0326701Y0208846D01*
X0326433Y0209257D01*
X0326154Y0209661D01*
X0325866Y0210059D01*
X0325568Y0210449D01*
X0325260Y0210832D01*
X0324944Y0211208D01*
X0324618Y0211576D01*
X0324284Y0211935D01*
X0323941Y0212287D01*
X0323589Y0212630D01*
X0323230Y0212964D01*
X0322862Y0213290D01*
X0322486Y0213606D01*
X0322103Y0213914D01*
X0321713Y0214212D01*
X0321315Y0214500D01*
X0320911Y0214779D01*
X0320500Y0215047D01*
X0320082Y0215306D01*
X0319658Y0215555D01*
X0319229Y0215793D01*
X0318793Y0216020D01*
X0318353Y0216237D01*
X0317907Y0216443D01*
X0317456Y0216638D01*
X0317001Y0216823D01*
X0316541Y0216996D01*
X0316078Y0217158D01*
X0315610Y0217308D01*
X0315139Y0217447D01*
X0314665Y0217575D01*
X0314187Y0217691D01*
X0313708Y0217796D01*
X0313225Y0217889D01*
X0312741Y0217970D01*
X0312255Y0218039D01*
X0311767Y0218096D01*
X0311278Y0218142D01*
X0310788Y0218176D01*
X0310297Y0218198D01*
X0309806Y0218207D01*
X0309806Y0217904D01*
X0310290Y0217895D01*
X0310773Y0217873D01*
X0311255Y0217840D01*
X0311737Y0217795D01*
X0312217Y0217738D01*
X0312696Y0217670D01*
X0313173Y0217590D01*
X0313648Y0217499D01*
X0314121Y0217396D01*
X0314591Y0217281D01*
X0315058Y0217155D01*
X0315522Y0217018D01*
X0315982Y0216870D01*
X0316439Y0216710D01*
X0316892Y0216540D01*
X0317340Y0216358D01*
X0317784Y0216166D01*
X0318223Y0215963D01*
X0318657Y0215749D01*
X0319086Y0215525D01*
X0319509Y0215291D01*
X0319926Y0215046D01*
X0320337Y0214791D01*
X0320742Y0214527D01*
X0321141Y0214252D01*
X0321532Y0213968D01*
X0321917Y0213675D01*
X0322294Y0213372D01*
X0322664Y0213060D01*
X0323026Y0212740D01*
X0323380Y0212410D01*
X0323727Y0212073D01*
X0324064Y0211726D01*
X0324394Y0211372D01*
X0324714Y0211010D01*
X0325026Y0210640D01*
X0325329Y0210263D01*
X0325622Y0209878D01*
X0325906Y0209487D01*
X0326181Y0209088D01*
X0326445Y0208683D01*
X0326700Y0208272D01*
X0326945Y0207855D01*
X0327179Y0207432D01*
X0327403Y0207003D01*
X0327617Y0206569D01*
X0327820Y0206130D01*
X0328012Y0205686D01*
X0328194Y0205238D01*
X0328364Y0204785D01*
X0328524Y0204328D01*
X0328672Y0203868D01*
X0328809Y0203404D01*
X0328935Y0202937D01*
X0329050Y0202467D01*
X0329153Y0201994D01*
X0329244Y0201519D01*
X0329324Y0201042D01*
X0329392Y0200563D01*
X0329449Y0200083D01*
X0329494Y0199601D01*
X0329527Y0199119D01*
X0329549Y0198636D01*
X0329558Y0198152D01*
X0329255Y0198152D01*
X0329246Y0198628D01*
X0329224Y0199104D01*
X0329192Y0199579D01*
X0329147Y0200053D01*
X0329092Y0200526D01*
X0329024Y0200998D01*
X0328946Y0201468D01*
X0328855Y0201935D01*
X0328754Y0202401D01*
X0328641Y0202863D01*
X0328517Y0203323D01*
X0328382Y0203780D01*
X0328236Y0204233D01*
X0328079Y0204683D01*
X0327911Y0205129D01*
X0327733Y0205570D01*
X0327543Y0206007D01*
X0327343Y0206440D01*
X0327133Y0206867D01*
X0326912Y0207289D01*
X0326681Y0207706D01*
X0326440Y0208116D01*
X0326189Y0208521D01*
X0325929Y0208920D01*
X0325659Y0209312D01*
X0325379Y0209698D01*
X0325090Y0210076D01*
X0324792Y0210448D01*
X0324485Y0210812D01*
X0324169Y0211169D01*
X0323845Y0211518D01*
X0323512Y0211858D01*
X0323172Y0212191D01*
X0322823Y0212515D01*
X0322466Y0212831D01*
X0322102Y0213138D01*
X0321730Y0213436D01*
X0321352Y0213725D01*
X0320966Y0214005D01*
X0320574Y0214275D01*
X0320175Y0214535D01*
X0319770Y0214786D01*
X0319360Y0215027D01*
X0318943Y0215258D01*
X0318521Y0215479D01*
X0318094Y0215689D01*
X0317661Y0215889D01*
X0317224Y0216079D01*
X0316783Y0216257D01*
X0316337Y0216425D01*
X0315887Y0216582D01*
X0315434Y0216728D01*
X0314977Y0216863D01*
X0314517Y0216987D01*
X0314055Y0217100D01*
X0313589Y0217201D01*
X0313122Y0217292D01*
X0312652Y0217370D01*
X0312180Y0217438D01*
X0311707Y0217493D01*
X0311233Y0217538D01*
X0310758Y0217570D01*
X0310282Y0217592D01*
X0309806Y0217601D01*
X0309806Y0217298D01*
X0310275Y0217289D01*
X0310743Y0217268D01*
X0311211Y0217235D01*
X0311678Y0217192D01*
X0312143Y0217137D01*
X0312607Y0217071D01*
X0313070Y0216993D01*
X0313530Y0216904D01*
X0313988Y0216804D01*
X0314444Y0216693D01*
X0314897Y0216571D01*
X0315346Y0216438D01*
X0315792Y0216295D01*
X0316235Y0216140D01*
X0316674Y0215975D01*
X0317108Y0215799D01*
X0317539Y0215612D01*
X0317964Y0215415D01*
X0318385Y0215208D01*
X0318800Y0214991D01*
X0319210Y0214764D01*
X0319615Y0214526D01*
X0320013Y0214279D01*
X0320406Y0214023D01*
X0320792Y0213757D01*
X0321171Y0213482D01*
X0321544Y0213197D01*
X0321910Y0212904D01*
X0322268Y0212602D01*
X0322619Y0212291D01*
X0322963Y0211972D01*
X0323298Y0211644D01*
X0323626Y0211309D01*
X0323945Y0210965D01*
X0324256Y0210614D01*
X0324558Y0210256D01*
X0324851Y0209890D01*
X0325136Y0209517D01*
X0325411Y0209138D01*
X0325677Y0208752D01*
X0325933Y0208359D01*
X0326180Y0207961D01*
X0326418Y0207556D01*
X0326645Y0207146D01*
X0326862Y0206731D01*
X0327069Y0206310D01*
X0327266Y0205885D01*
X0327453Y0205454D01*
X0327629Y0205020D01*
X0327794Y0204581D01*
X0327949Y0204138D01*
X0328092Y0203692D01*
X0328225Y0203243D01*
X0328347Y0202790D01*
X0328458Y0202334D01*
X0328558Y0201876D01*
X0328647Y0201416D01*
X0328725Y0200953D01*
X0328791Y0200489D01*
X0328846Y0200024D01*
X0328889Y0199557D01*
X0328922Y0199089D01*
X0328943Y0198621D01*
X0328952Y0198152D01*
X0328649Y0198152D01*
X0328640Y0198613D01*
X0328619Y0199074D01*
X0328587Y0199535D01*
X0328544Y0199994D01*
X0328490Y0200452D01*
X0328425Y0200909D01*
X0328348Y0201364D01*
X0328261Y0201817D01*
X0328163Y0202268D01*
X0328053Y0202716D01*
X0327933Y0203162D01*
X0327802Y0203604D01*
X0327661Y0204043D01*
X0327509Y0204479D01*
X0327346Y0204911D01*
X0327173Y0205338D01*
X0326989Y0205762D01*
X0326795Y0206180D01*
X0326592Y0206594D01*
X0326378Y0207003D01*
X0326154Y0207407D01*
X0325921Y0207805D01*
X0325677Y0208197D01*
X0325425Y0208583D01*
X0325163Y0208963D01*
X0324892Y0209337D01*
X0324612Y0209704D01*
X0324324Y0210063D01*
X0324026Y0210416D01*
X0323720Y0210762D01*
X0323406Y0211100D01*
X0323084Y0211430D01*
X0322754Y0211752D01*
X0322416Y0212066D01*
X0322070Y0212372D01*
X0321717Y0212670D01*
X0321358Y0212958D01*
X0320991Y0213238D01*
X0320617Y0213509D01*
X0320237Y0213771D01*
X0319851Y0214023D01*
X0319459Y0214267D01*
X0319061Y0214500D01*
X0318657Y0214724D01*
X0318248Y0214938D01*
X0317834Y0215141D01*
X0317416Y0215335D01*
X0316992Y0215519D01*
X0316565Y0215692D01*
X0316133Y0215855D01*
X0315697Y0216007D01*
X0315258Y0216148D01*
X0314816Y0216279D01*
X0314370Y0216399D01*
X0313922Y0216509D01*
X0313471Y0216607D01*
X0313018Y0216694D01*
X0312563Y0216771D01*
X0312106Y0216836D01*
X0311648Y0216890D01*
X0311189Y0216933D01*
X0310728Y0216965D01*
X0310267Y0216986D01*
X0309806Y0216995D01*
X0309806Y0216692D01*
X0310260Y0216683D01*
X0310713Y0216663D01*
X0311166Y0216631D01*
X0311618Y0216589D01*
X0312069Y0216535D01*
X0312519Y0216471D01*
X0312966Y0216396D01*
X0313412Y0216310D01*
X0313856Y0216213D01*
X0314297Y0216106D01*
X0314735Y0215987D01*
X0315170Y0215858D01*
X0315602Y0215719D01*
X0316031Y0215569D01*
X0316456Y0215409D01*
X0316876Y0215239D01*
X0317293Y0215058D01*
X0317705Y0214867D01*
X0318112Y0214667D01*
X0318514Y0214456D01*
X0318912Y0214236D01*
X0319303Y0214007D01*
X0319689Y0213767D01*
X0320069Y0213519D01*
X0320443Y0213261D01*
X0320810Y0212995D01*
X0321171Y0212719D01*
X0321525Y0212435D01*
X0321872Y0212143D01*
X0322212Y0211842D01*
X0322545Y0211533D01*
X0322870Y0211216D01*
X0323187Y0210891D01*
X0323496Y0210558D01*
X0323797Y0210218D01*
X0324089Y0209871D01*
X0324373Y0209517D01*
X0324649Y0209156D01*
X0324915Y0208789D01*
X0325173Y0208415D01*
X0325421Y0208035D01*
X0325661Y0207649D01*
X0325890Y0207258D01*
X0326110Y0206860D01*
X0326321Y0206458D01*
X0326521Y0206051D01*
X0326712Y0205639D01*
X0326893Y0205222D01*
X0327063Y0204802D01*
X0327223Y0204377D01*
X0327373Y0203948D01*
X0327512Y0203516D01*
X0327641Y0203081D01*
X0327760Y0202643D01*
X0327867Y0202202D01*
X0327964Y0201758D01*
X0328050Y0201312D01*
X0328125Y0200865D01*
X0328189Y0200415D01*
X0328243Y0199964D01*
X0328285Y0199512D01*
X0328317Y0199059D01*
X0328337Y0198606D01*
X0328346Y0198152D01*
X0328043Y0198152D01*
X0328034Y0198598D01*
X0328014Y0199045D01*
X0327983Y0199490D01*
X0327941Y0199935D01*
X0327889Y0200378D01*
X0327825Y0200820D01*
X0327751Y0201260D01*
X0327667Y0201699D01*
X0327571Y0202135D01*
X0327466Y0202569D01*
X0327349Y0203000D01*
X0327222Y0203428D01*
X0327085Y0203853D01*
X0326938Y0204275D01*
X0326780Y0204693D01*
X0326613Y0205106D01*
X0326435Y0205516D01*
X0326248Y0205921D01*
X0326050Y0206322D01*
X0325843Y0206718D01*
X0325627Y0207108D01*
X0325401Y0207493D01*
X0325165Y0207873D01*
X0324921Y0208247D01*
X0324668Y0208614D01*
X0324406Y0208976D01*
X0324135Y0209331D01*
X0323855Y0209679D01*
X0323567Y0210020D01*
X0323271Y0210355D01*
X0322967Y0210682D01*
X0322655Y0211001D01*
X0322336Y0211313D01*
X0322009Y0211617D01*
X0321674Y0211913D01*
X0321333Y0212201D01*
X0320985Y0212481D01*
X0320630Y0212752D01*
X0320268Y0213014D01*
X0319901Y0213267D01*
X0319527Y0213511D01*
X0319147Y0213747D01*
X0318762Y0213973D01*
X0318372Y0214189D01*
X0317976Y0214396D01*
X0317575Y0214594D01*
X0317170Y0214781D01*
X0316760Y0214959D01*
X0316347Y0215126D01*
X0315929Y0215284D01*
X0315507Y0215431D01*
X0315082Y0215568D01*
X0314654Y0215695D01*
X0314223Y0215812D01*
X0313789Y0215917D01*
X0313353Y0216013D01*
X0312914Y0216097D01*
X0312474Y0216171D01*
X0312032Y0216235D01*
X0311589Y0216287D01*
X0311144Y0216329D01*
X0310699Y0216360D01*
X0310252Y0216380D01*
X0309806Y0216389D01*
D16*
X0200464Y0190199D02*
X0200464Y0177489D01*
X0191990Y0177489D02*
X0191990Y0190199D01*
X0196227Y0185962D01*
X0200464Y0190199D01*
X0186652Y0188081D02*
X0184534Y0190199D01*
X0180297Y0190199D01*
X0178178Y0188081D01*
X0178178Y0179607D01*
X0180297Y0177489D01*
X0184534Y0177489D01*
X0186652Y0179607D01*
X0186652Y0188081D01*
X0172840Y0188081D02*
X0164367Y0179607D01*
X0164367Y0177489D01*
X0172840Y0177489D01*
X0159396Y0177489D02*
X0155159Y0177489D01*
X0157277Y0177489D02*
X0157277Y0190199D01*
X0155159Y0190199D02*
X0159396Y0190199D01*
X0164367Y0190199D02*
X0172840Y0190199D01*
X0172840Y0188081D01*
X0149821Y0188081D02*
X0149821Y0179607D01*
X0147702Y0177489D01*
X0143465Y0177489D01*
X0141347Y0179607D01*
X0141347Y0188081D01*
X0143465Y0190199D01*
X0147702Y0190199D01*
X0149821Y0188081D01*
D17*
X0144528Y0165315D02*
X0134291Y0159803D01*
X0133504Y0159803D01*
X0133504Y0154291D01*
X0133504Y0159803D02*
X0133504Y0165315D01*
X0133504Y0159803D02*
X0113031Y0159803D01*
X0134291Y0159803D02*
X0144528Y0154291D01*
X0144528Y0159803D01*
X0144528Y0165315D01*
X0144528Y0159803D02*
X0149252Y0159803D01*
X0149252Y0144843D01*
X0191772Y0144843D02*
X0191772Y0159803D01*
X0196496Y0159803D01*
X0196496Y0154291D01*
X0206732Y0159803D01*
X0196496Y0165315D01*
X0196496Y0159803D01*
X0207126Y0159803D02*
X0207126Y0165315D01*
X0207126Y0159803D02*
X0207126Y0154291D01*
X0207126Y0159803D02*
X0229173Y0159803D01*
D18*
X0205945Y0168858D02*
X0205945Y0170433D01*
X0204370Y0170433D01*
X0205945Y0170433D02*
X0201614Y0166102D01*
X0198858Y0168858D02*
X0203189Y0173189D01*
X0203189Y0171614D01*
X0203189Y0173189D02*
X0201614Y0173189D01*
X0141772Y0168465D02*
X0137441Y0172795D01*
X0139016Y0172795D01*
X0137441Y0172795D02*
X0137441Y0171220D01*
X0136260Y0170039D02*
X0134685Y0170039D01*
X0134685Y0168465D01*
X0134685Y0170039D02*
X0139016Y0165709D01*
X0053976Y0197992D02*
X0051220Y0197992D01*
X0291772Y0197992D02*
X0292165Y0197992D01*
M02*
