G75*
%MOIN*%
%OFA0B0*%
%FSLAX25Y25*%
%IPPOS*%
%LPD*%
%AMOC8*
5,1,8,0,0,1.08239X$1,22.5*
%
%ADD10R,0.11036X0.11036*%
%ADD11R,0.03162X0.06706*%
%ADD12R,0.12800X0.04737*%
%ADD13C,0.12611*%
%ADD14C,0.08200*%
%ADD15R,0.04762X0.04762*%
D10*
X0078071Y0027717D03*
X0135748Y0027717D03*
D11*
X0124134Y0038150D03*
X0119213Y0038150D03*
X0114291Y0038150D03*
X0109370Y0038150D03*
X0104449Y0038150D03*
X0099528Y0038150D03*
X0094606Y0038150D03*
X0089685Y0038150D03*
D12*
X0091909Y0153543D03*
X0091909Y0166142D03*
X0116201Y0166142D03*
X0116201Y0153543D03*
X0224744Y0154016D03*
X0224744Y0166614D03*
X0249035Y0166614D03*
X0249035Y0154016D03*
D13*
X0299646Y0197992D03*
X0237244Y0026929D03*
X0043740Y0197992D03*
D14*
X0015748Y0022008D03*
X0015748Y0032008D03*
X0015748Y0042008D03*
X0015748Y0052008D03*
X0015748Y0062008D03*
X0015748Y0072008D03*
X0015748Y0082008D03*
X0015748Y0092008D03*
X0015709Y0112047D03*
X0015709Y0122047D03*
X0015709Y0132047D03*
X0015709Y0142047D03*
X0015709Y0152047D03*
X0015709Y0162047D03*
X0205748Y0162008D03*
X0205748Y0152008D03*
X0205748Y0142008D03*
X0205748Y0132008D03*
X0205748Y0122008D03*
X0205748Y0112008D03*
X0205748Y0102008D03*
X0205748Y0092008D03*
D15*
X0138740Y0108465D03*
X0138701Y0128031D03*
X0067441Y0157598D03*
X0067441Y0175709D03*
M02*
