%
M48
M72
T01C0.02362
T02C0.04000
T03C0.11811
%
T01
X138740Y108465
X138701Y128031
X67441Y157598
X67441Y175709
T02
X15748Y22008
X15748Y32008
X15748Y42008
X15748Y52008
X15748Y62008
X15748Y72008
X15748Y82008
X15748Y92008
X15709Y112047
X15709Y122047
X15709Y132047
X15709Y142047
X15709Y152047
X15709Y162047
X205748Y162008
X205748Y152008
X205748Y142008
X205748Y132008
X205748Y122008
X205748Y112008
X205748Y102008
X205748Y92008
T03
X237244Y26929
X299646Y197992
X43740Y197992
M30
